<mxfile host="app.diagrams.net" modified="2023-05-04T09:31:22.126Z" agent="Mozilla/5.0 (Windows NT 10.0; Win64; x64) AppleWebKit/537.36 (KHTML, like Gecko) Chrome/112.0.0.0 Safari/537.36" etag="GhldYJfEHt1ZtSxHf3Ud" version="21.2.7" type="onedrive">
  <diagram id="C5RBs43oDa-KdzZeNtuy" name="Page-1">
    <mxGraphModel grid="1" page="1" gridSize="10" guides="1" tooltips="1" connect="1" arrows="1" fold="1" pageScale="1" pageWidth="827" pageHeight="1169" math="0" shadow="0">
      <root>
        <mxCell id="WIyWlLk6GJQsqaUBKTNV-0" />
        <mxCell id="WIyWlLk6GJQsqaUBKTNV-1" parent="WIyWlLk6GJQsqaUBKTNV-0" />
        <mxCell id="qQHOARV6SDKUEVZUDNVl-13" style="edgeStyle=orthogonalEdgeStyle;rounded=0;orthogonalLoop=1;jettySize=auto;html=1;exitX=0.75;exitY=1;exitDx=0;exitDy=0;entryX=0.216;entryY=0;entryDx=0;entryDy=0;entryPerimeter=0;" edge="1" parent="WIyWlLk6GJQsqaUBKTNV-1" source="qQHOARV6SDKUEVZUDNVl-10" target="qQHOARV6SDKUEVZUDNVl-1">
          <mxGeometry relative="1" as="geometry" />
        </mxCell>
        <mxCell id="qQHOARV6SDKUEVZUDNVl-10" value="AM : AdminMenu" style="swimlane;fontStyle=1;align=center;verticalAlign=top;childLayout=stackLayout;horizontal=1;startSize=26;horizontalStack=0;resizeParent=1;resizeParentMax=0;resizeLast=0;collapsible=1;marginBottom=0;whiteSpace=wrap;html=1;" vertex="1" parent="WIyWlLk6GJQsqaUBKTNV-1">
          <mxGeometry x="380" y="90" width="200" height="56" as="geometry" />
        </mxCell>
        <mxCell id="89CcJsVy4Urx-jafi869-3" value="+ input = Scaneer" style="text;html=1;strokeColor=none;fillColor=none;align=left;verticalAlign=middle;whiteSpace=wrap;rounded=0;" vertex="1" parent="qQHOARV6SDKUEVZUDNVl-10">
          <mxGeometry y="26" width="200" height="30" as="geometry" />
        </mxCell>
        <mxCell id="qQHOARV6SDKUEVZUDNVl-12" style="edgeStyle=orthogonalEdgeStyle;rounded=0;orthogonalLoop=1;jettySize=auto;html=1;exitX=1;exitY=0.5;exitDx=0;exitDy=0;" edge="1" parent="WIyWlLk6GJQsqaUBKTNV-1" source="qQHOARV6SDKUEVZUDNVl-11" target="qQHOARV6SDKUEVZUDNVl-10">
          <mxGeometry relative="1" as="geometry" />
        </mxCell>
        <mxCell id="89CcJsVy4Urx-jafi869-4" value="continue menu" style="edgeLabel;html=1;align=center;verticalAlign=middle;resizable=0;points=[];" connectable="0" vertex="1" parent="qQHOARV6SDKUEVZUDNVl-12">
          <mxGeometry x="-0.2" relative="1" as="geometry">
            <mxPoint y="1" as="offset" />
          </mxGeometry>
        </mxCell>
        <mxCell id="qQHOARV6SDKUEVZUDNVl-11" value="MM : MainMenu" style="swimlane;fontStyle=1;align=center;verticalAlign=top;childLayout=stackLayout;horizontal=1;startSize=26;horizontalStack=0;resizeParent=1;resizeParentMax=0;resizeLast=0;collapsible=1;marginBottom=0;whiteSpace=wrap;html=1;" vertex="1" parent="WIyWlLk6GJQsqaUBKTNV-1">
          <mxGeometry x="60" y="87" width="200" height="56" as="geometry" />
        </mxCell>
        <mxCell id="89CcJsVy4Urx-jafi869-0" value="+ input = Scaneer" style="text;html=1;strokeColor=none;fillColor=none;align=left;verticalAlign=middle;whiteSpace=wrap;rounded=0;" vertex="1" parent="qQHOARV6SDKUEVZUDNVl-11">
          <mxGeometry y="26" width="200" height="30" as="geometry" />
        </mxCell>
        <mxCell id="qQHOARV6SDKUEVZUDNVl-14" value="יצירת מוצר קטלוגי חדש - פסטה" style="text;html=1;align=center;verticalAlign=middle;resizable=0;points=[];autosize=1;strokeColor=none;fillColor=none;" vertex="1" parent="WIyWlLk6GJQsqaUBKTNV-1">
          <mxGeometry x="625" y="28" width="190" height="30" as="geometry" />
        </mxCell>
        <mxCell id="VhmcF22pDkBif8iSbu52-0" value="netanya : Branch" style="swimlane;fontStyle=1;align=center;verticalAlign=top;childLayout=stackLayout;horizontal=1;startSize=26;horizontalStack=0;resizeParent=1;resizeParentMax=0;resizeLast=0;collapsible=1;marginBottom=0;whiteSpace=wrap;html=1;" vertex="1" parent="WIyWlLk6GJQsqaUBKTNV-1">
          <mxGeometry x="489" y="305" width="180" height="70" as="geometry" />
        </mxCell>
        <mxCell id="VhmcF22pDkBif8iSbu52-1" value="+ address = &quot;Netanya&quot;&lt;br&gt;+ id = 1" style="text;strokeColor=none;fillColor=none;align=left;verticalAlign=top;spacingLeft=4;spacingRight=4;overflow=hidden;rotatable=0;points=[[0,0.5],[1,0.5]];portConstraint=eastwest;whiteSpace=wrap;html=1;" vertex="1" parent="VhmcF22pDkBif8iSbu52-0">
          <mxGeometry y="26" width="180" height="44" as="geometry" />
        </mxCell>
        <mxCell id="VhmcF22pDkBif8iSbu52-35" value="pasta_disc:CostumerDiscount" style="swimlane;fontStyle=1;align=center;verticalAlign=top;childLayout=stackLayout;horizontal=1;startSize=26;horizontalStack=0;resizeParent=1;resizeParentMax=0;resizeLast=0;collapsible=1;marginBottom=0;whiteSpace=wrap;html=1;" vertex="1" parent="WIyWlLk6GJQsqaUBKTNV-1">
          <mxGeometry x="569" y="685" width="180" height="100" as="geometry">
            <mxRectangle x="330" y="499" width="90" height="30" as="alternateBounds" />
          </mxGeometry>
        </mxCell>
        <mxCell id="VhmcF22pDkBif8iSbu52-36" value="+ expirationDate = 18/6/23&lt;br&gt;+ value = 3&lt;br&gt;+ isPercentage = false&lt;br&gt;+ minCapacity = 0" style="text;strokeColor=none;fillColor=none;align=left;verticalAlign=top;spacingLeft=4;spacingRight=4;overflow=hidden;rotatable=0;points=[[0,0.5],[1,0.5]];portConstraint=eastwest;whiteSpace=wrap;html=1;" vertex="1" parent="VhmcF22pDkBif8iSbu52-35">
          <mxGeometry y="26" width="180" height="74" as="geometry" />
        </mxCell>
        <mxCell id="9vg_7uP11k49zYVhbG7L-10" style="edgeStyle=orthogonalEdgeStyle;rounded=0;orthogonalLoop=1;jettySize=auto;html=1;exitX=0.606;exitY=1.007;exitDx=0;exitDy=0;endArrow=open;endFill=0;exitPerimeter=0;" edge="1" parent="WIyWlLk6GJQsqaUBKTNV-1" source="jIfuO9peZlvy2pWs-0o6-11">
          <mxGeometry relative="1" as="geometry">
            <Array as="points">
              <mxPoint x="589" y="561" />
            </Array>
            <mxPoint x="589" y="685" as="targetPoint" />
            <mxPoint x="639" y="574" as="sourcePoint" />
          </mxGeometry>
        </mxCell>
        <mxCell id="9vg_7uP11k49zYVhbG7L-13" value="&lt;font size=&quot;1&quot;&gt;holds&lt;/font&gt;" style="edgeLabel;html=1;align=center;verticalAlign=middle;resizable=0;points=[];" vertex="1" connectable="0" parent="WIyWlLk6GJQsqaUBKTNV-1">
          <mxGeometry x="749" y="650.0027271960432" as="geometry">
            <mxPoint x="-143" y="-24" as="offset" />
          </mxGeometry>
        </mxCell>
        <mxCell id="jIfuO9peZlvy2pWs-0o6-10" value="&lt;b&gt;pasta:CatalogItem&lt;/b&gt;" style="swimlane;fontStyle=0;childLayout=stackLayout;horizontal=1;startSize=26;fillColor=none;horizontalStack=0;resizeParent=1;resizeParentMax=0;resizeLast=0;collapsible=1;marginBottom=0;whiteSpace=wrap;html=1;" vertex="1" parent="WIyWlLk6GJQsqaUBKTNV-1">
          <mxGeometry x="489" y="400" width="160" height="160" as="geometry" />
        </mxCell>
        <mxCell id="jIfuO9peZlvy2pWs-0o6-11" value="+ id = 101&lt;br&gt;+ name = &quot;pasta&quot;&lt;br&gt;+ manufacturer = &quot;Rummo&quot;&lt;br style=&quot;border-color: var(--border-color);&quot;&gt;+ sellPrice = 8&lt;br style=&quot;border-color: var(--border-color);&quot;&gt;+ minCapacity = 78&lt;br&gt;+ shelvesLocation = 904&lt;br&gt;+ backLocation = 1275&lt;br&gt;+ shelfLife = 8" style="text;strokeColor=none;fillColor=none;align=left;verticalAlign=top;spacingLeft=4;spacingRight=4;overflow=hidden;rotatable=0;points=[[0,0.5],[1,0.5]];portConstraint=eastwest;whiteSpace=wrap;html=1;" vertex="1" parent="jIfuO9peZlvy2pWs-0o6-10">
          <mxGeometry y="26" width="160" height="134" as="geometry" />
        </mxCell>
        <mxCell id="jIfuO9peZlvy2pWs-0o6-12" value="pasta_cat:Category" style="swimlane;fontStyle=1;align=center;verticalAlign=top;childLayout=stackLayout;horizontal=1;startSize=26;horizontalStack=0;resizeParent=1;resizeParentMax=0;resizeLast=0;collapsible=1;marginBottom=0;whiteSpace=wrap;html=1;" vertex="1" parent="WIyWlLk6GJQsqaUBKTNV-1">
          <mxGeometry x="319" y="650" width="240" height="70" as="geometry" />
        </mxCell>
        <mxCell id="jIfuO9peZlvy2pWs-0o6-13" value="+&amp;nbsp;categories&lt;span style=&quot;background-color: initial;&quot;&gt;&amp;nbsp;= [&quot;Legumes&quot;, &quot;Pasta&quot;]&lt;/span&gt;" style="text;strokeColor=none;fillColor=none;align=left;verticalAlign=top;spacingLeft=4;spacingRight=4;overflow=hidden;rotatable=0;points=[[0,0.5],[1,0.5]];portConstraint=eastwest;whiteSpace=wrap;html=1;" vertex="1" parent="jIfuO9peZlvy2pWs-0o6-12">
          <mxGeometry y="26" width="240" height="44" as="geometry" />
        </mxCell>
        <mxCell id="jIfuO9peZlvy2pWs-0o6-14" value="&lt;b&gt;halfKG2:Size&lt;/b&gt;" style="swimlane;fontStyle=0;childLayout=stackLayout;horizontal=1;startSize=26;fillColor=none;horizontalStack=0;resizeParent=1;resizeParentMax=0;resizeLast=0;collapsible=1;marginBottom=0;whiteSpace=wrap;html=1;" vertex="1" parent="WIyWlLk6GJQsqaUBKTNV-1">
          <mxGeometry x="380" y="780" width="130" height="70" as="geometry" />
        </mxCell>
        <mxCell id="jIfuO9peZlvy2pWs-0o6-15" value="+ amount = 500&lt;span style=&quot;&quot;&gt;&lt;br&gt;+ type =&amp;nbsp;&lt;/span&gt;GM" style="text;strokeColor=none;fillColor=none;align=left;verticalAlign=top;spacingLeft=4;spacingRight=4;overflow=hidden;rotatable=0;points=[[0,0.5],[1,0.5]];portConstraint=eastwest;whiteSpace=wrap;html=1;" vertex="1" parent="jIfuO9peZlvy2pWs-0o6-14">
          <mxGeometry y="26" width="130" height="44" as="geometry" />
        </mxCell>
        <mxCell id="jIfuO9peZlvy2pWs-0o6-17" value="" style="endArrow=diamondThin;endFill=1;endSize=24;html=1;rounded=0;exitX=0.5;exitY=0;exitDx=0;exitDy=0;" edge="1" parent="WIyWlLk6GJQsqaUBKTNV-1" source="jIfuO9peZlvy2pWs-0o6-14">
          <mxGeometry width="160" relative="1" as="geometry">
            <mxPoint x="444.5" y="767" as="sourcePoint" />
            <mxPoint x="443.5" y="720" as="targetPoint" />
          </mxGeometry>
        </mxCell>
        <mxCell id="jIfuO9peZlvy2pWs-0o6-18" value="&lt;font style=&quot;font-size: 8px;&quot;&gt;Category Size&lt;/font&gt;" style="edgeLabel;html=1;align=center;verticalAlign=middle;resizable=0;points=[];fontSize=8;" connectable="0" vertex="1" parent="jIfuO9peZlvy2pWs-0o6-17">
          <mxGeometry x="0.302" relative="1" as="geometry">
            <mxPoint x="-3" y="18" as="offset" />
          </mxGeometry>
        </mxCell>
        <mxCell id="jIfuO9peZlvy2pWs-0o6-19" style="edgeStyle=orthogonalEdgeStyle;rounded=0;orthogonalLoop=1;jettySize=auto;html=1;endArrow=open;endFill=0;entryX=0.865;entryY=0.004;entryDx=0;entryDy=0;exitX=0.213;exitY=1.007;exitDx=0;exitDy=0;entryPerimeter=0;exitPerimeter=0;" edge="1" parent="WIyWlLk6GJQsqaUBKTNV-1" source="jIfuO9peZlvy2pWs-0o6-11" target="jIfuO9peZlvy2pWs-0o6-12">
          <mxGeometry relative="1" as="geometry">
            <Array as="points">
              <mxPoint x="527" y="561" />
            </Array>
            <mxPoint x="484" y="560" as="sourcePoint" />
            <mxPoint x="526.5" y="844.09" as="targetPoint" />
          </mxGeometry>
        </mxCell>
        <mxCell id="jIfuO9peZlvy2pWs-0o6-20" value="&lt;font style=&quot;font-size: 9px;&quot;&gt;Belongs to&lt;/font&gt;" style="edgeLabel;html=1;align=center;verticalAlign=middle;resizable=0;points=[];" vertex="1" connectable="0" parent="jIfuO9peZlvy2pWs-0o6-19">
          <mxGeometry x="0.345" y="2" relative="1" as="geometry">
            <mxPoint x="-3" y="-14" as="offset" />
          </mxGeometry>
        </mxCell>
        <mxCell id="qQHOARV6SDKUEVZUDNVl-1" value="&lt;font style=&quot;font-size: 11px;&quot;&gt;sMF : StockManagmentFacade&lt;/font&gt;" style="swimlane;fontStyle=1;align=center;verticalAlign=top;childLayout=stackLayout;horizontal=1;startSize=26;horizontalStack=0;resizeParent=1;resizeParentMax=0;resizeLast=0;collapsible=1;marginBottom=0;whiteSpace=wrap;html=1;" vertex="1" parent="WIyWlLk6GJQsqaUBKTNV-1">
          <mxGeometry x="489" y="210" width="188" height="30" as="geometry" />
        </mxCell>
        <mxCell id="qQHOARV6SDKUEVZUDNVl-4" value="&lt;p style=&quot;margin:0px;margin-top:4px;text-align:center;&quot;&gt;&lt;b&gt;cIDM : CatalogItemDataMapper&lt;/b&gt;&lt;/p&gt;&lt;hr size=&quot;1&quot;&gt;&lt;p style=&quot;margin:0 0 0 4px;line-height:1.6;&quot;&gt;&lt;br&gt;&lt;/p&gt;" style="verticalAlign=top;align=left;overflow=fill;fontSize=14;fontFamily=Helvetica;html=1;rounded=0;shadow=0;comic=0;labelBackgroundColor=none;strokeWidth=1;" vertex="1" parent="WIyWlLk6GJQsqaUBKTNV-1">
          <mxGeometry x="79" y="200" width="250" height="40" as="geometry" />
        </mxCell>
        <mxCell id="qQHOARV6SDKUEVZUDNVl-6" style="edgeStyle=orthogonalEdgeStyle;rounded=0;orthogonalLoop=1;jettySize=auto;html=1;exitX=0;exitY=0.5;exitDx=0;exitDy=0;entryX=1.001;entryY=0.63;entryDx=0;entryDy=0;entryPerimeter=0;" edge="1" parent="WIyWlLk6GJQsqaUBKTNV-1" source="qQHOARV6SDKUEVZUDNVl-1" target="qQHOARV6SDKUEVZUDNVl-4">
          <mxGeometry relative="1" as="geometry">
            <Array as="points">
              <mxPoint x="329" y="225" />
            </Array>
          </mxGeometry>
        </mxCell>
        <mxCell id="IWr60KSukv1CMMSqz1xH-234" value="&lt;p style=&quot;margin:0px;margin-top:4px;text-align:center;&quot;&gt;&lt;b&gt;BDM : BranchDataMapper&lt;/b&gt;&lt;/p&gt;&lt;hr size=&quot;1&quot;&gt;&lt;p style=&quot;margin:0 0 0 4px;line-height:1.6;&quot;&gt;&lt;br&gt;&lt;/p&gt;" style="verticalAlign=top;align=left;overflow=fill;fontSize=14;fontFamily=Helvetica;html=1;rounded=0;shadow=0;comic=0;labelBackgroundColor=none;strokeWidth=1;" vertex="1" parent="WIyWlLk6GJQsqaUBKTNV-1">
          <mxGeometry x="130" y="333" width="250" height="40" as="geometry" />
        </mxCell>
        <mxCell id="rH_Ifb9CREqOWuZM-UfC-43" value="&lt;b&gt;&lt;font style=&quot;font-size: 9px;&quot;&gt;Has&lt;/font&gt;&lt;/b&gt;" style="edgeLabel;html=1;align=center;verticalAlign=middle;resizable=0;points=[];" connectable="0" vertex="1" parent="WIyWlLk6GJQsqaUBKTNV-1">
          <mxGeometry x="1419.0430734406718" y="600.692313783009" as="geometry" />
        </mxCell>
        <mxCell id="rH_Ifb9CREqOWuZM-UfC-44" value="C1: Contact" style="swimlane;fontStyle=0;childLayout=stackLayout;horizontal=1;startSize=26;fillColor=none;horizontalStack=0;resizeParent=1;resizeParentMax=0;resizeLast=0;collapsible=1;marginBottom=0;whiteSpace=wrap;html=1;" vertex="1" parent="WIyWlLk6GJQsqaUBKTNV-1">
          <mxGeometry x="899" y="30" width="190" height="100" as="geometry" />
        </mxCell>
        <mxCell id="rH_Ifb9CREqOWuZM-UfC-45" value="- Name = Gali" style="text;strokeColor=none;fillColor=none;align=left;verticalAlign=top;spacingLeft=4;spacingRight=4;overflow=hidden;rotatable=0;points=[[0,0.5],[1,0.5]];portConstraint=eastwest;whiteSpace=wrap;html=1;" vertex="1" parent="rH_Ifb9CREqOWuZM-UfC-44">
          <mxGeometry y="26" width="190" height="22" as="geometry" />
        </mxCell>
        <mxCell id="rH_Ifb9CREqOWuZM-UfC-46" value="- Phone number = 054-4563452" style="text;strokeColor=none;fillColor=none;align=left;verticalAlign=top;spacingLeft=4;spacingRight=4;overflow=hidden;rotatable=0;points=[[0,0.5],[1,0.5]];portConstraint=eastwest;whiteSpace=wrap;html=1;" vertex="1" parent="rH_Ifb9CREqOWuZM-UfC-44">
          <mxGeometry y="48" width="190" height="26" as="geometry" />
        </mxCell>
        <mxCell id="rH_Ifb9CREqOWuZM-UfC-47" value="- Email = gali@gmail.com" style="text;strokeColor=none;fillColor=none;align=left;verticalAlign=top;spacingLeft=4;spacingRight=4;overflow=hidden;rotatable=0;points=[[0,0.5],[1,0.5]];portConstraint=eastwest;whiteSpace=wrap;html=1;" vertex="1" parent="rH_Ifb9CREqOWuZM-UfC-44">
          <mxGeometry y="74" width="190" height="26" as="geometry" />
        </mxCell>
        <mxCell id="rH_Ifb9CREqOWuZM-UfC-48" value="SD1: Supplier Card&amp;nbsp;" style="swimlane;fontStyle=0;childLayout=stackLayout;horizontal=1;startSize=26;fillColor=none;horizontalStack=0;resizeParent=1;resizeParentMax=0;resizeLast=0;collapsible=1;marginBottom=0;whiteSpace=wrap;html=1;" vertex="1" parent="WIyWlLk6GJQsqaUBKTNV-1">
          <mxGeometry x="1139" y="40" width="190" height="156" as="geometry" />
        </mxCell>
        <mxCell id="rH_Ifb9CREqOWuZM-UfC-49" value="- Name = Adi" style="text;strokeColor=none;fillColor=none;align=left;verticalAlign=top;spacingLeft=4;spacingRight=4;overflow=hidden;rotatable=0;points=[[0,0.5],[1,0.5]];portConstraint=eastwest;whiteSpace=wrap;html=1;" vertex="1" parent="rH_Ifb9CREqOWuZM-UfC-48">
          <mxGeometry y="26" width="190" height="26" as="geometry" />
        </mxCell>
        <mxCell id="rH_Ifb9CREqOWuZM-UfC-50" value="- Address = Sultan st." style="text;strokeColor=none;fillColor=none;align=left;verticalAlign=top;spacingLeft=4;spacingRight=4;overflow=hidden;rotatable=0;points=[[0,0.5],[1,0.5]];portConstraint=eastwest;whiteSpace=wrap;html=1;" vertex="1" parent="rH_Ifb9CREqOWuZM-UfC-48">
          <mxGeometry y="52" width="190" height="26" as="geometry" />
        </mxCell>
        <mxCell id="rH_Ifb9CREqOWuZM-UfC-51" value="- Id = 12" style="text;strokeColor=none;fillColor=none;align=left;verticalAlign=top;spacingLeft=4;spacingRight=4;overflow=hidden;rotatable=0;points=[[0,0.5],[1,0.5]];portConstraint=eastwest;whiteSpace=wrap;html=1;" vertex="1" parent="rH_Ifb9CREqOWuZM-UfC-48">
          <mxGeometry y="78" width="190" height="26" as="geometry" />
        </mxCell>
        <mxCell id="rH_Ifb9CREqOWuZM-UfC-52" value="- Bank account = 1214" style="text;strokeColor=none;fillColor=none;align=left;verticalAlign=top;spacingLeft=4;spacingRight=4;overflow=hidden;rotatable=0;points=[[0,0.5],[1,0.5]];portConstraint=eastwest;whiteSpace=wrap;html=1;" vertex="1" parent="rH_Ifb9CREqOWuZM-UfC-48">
          <mxGeometry y="104" width="190" height="26" as="geometry" />
        </mxCell>
        <mxCell id="rH_Ifb9CREqOWuZM-UfC-53" value="- Payment Way = plus 30" style="text;strokeColor=none;fillColor=none;align=left;verticalAlign=top;spacingLeft=4;spacingRight=4;overflow=hidden;rotatable=0;points=[[0,0.5],[1,0.5]];portConstraint=eastwest;whiteSpace=wrap;html=1;" vertex="1" parent="rH_Ifb9CREqOWuZM-UfC-48">
          <mxGeometry y="130" width="190" height="26" as="geometry" />
        </mxCell>
        <mxCell id="rH_Ifb9CREqOWuZM-UfC-54" style="edgeStyle=orthogonalEdgeStyle;rounded=0;orthogonalLoop=1;jettySize=auto;html=1;entryX=0;entryY=0.5;entryDx=0;entryDy=0;" edge="1" parent="WIyWlLk6GJQsqaUBKTNV-1" source="rH_Ifb9CREqOWuZM-UfC-55" target="rH_Ifb9CREqOWuZM-UfC-52">
          <mxGeometry relative="1" as="geometry" />
        </mxCell>
        <mxCell id="rH_Ifb9CREqOWuZM-UfC-55" value="Supp1: Supplier Delivers ERegular&amp;nbsp;" style="swimlane;fontStyle=0;childLayout=stackLayout;horizontal=1;startSize=30;fillColor=none;horizontalStack=0;resizeParent=1;resizeParentMax=0;resizeLast=0;collapsible=1;marginBottom=0;whiteSpace=wrap;html=1;" vertex="1" parent="WIyWlLk6GJQsqaUBKTNV-1">
          <mxGeometry x="909" y="240" width="230" height="108" as="geometry" />
        </mxCell>
        <mxCell id="rH_Ifb9CREqOWuZM-UfC-56" value="- Catagories = [&quot;Legumes&quot;]" style="text;strokeColor=none;fillColor=none;align=left;verticalAlign=top;spacingLeft=4;spacingRight=4;overflow=hidden;rotatable=0;points=[[0,0.5],[1,0.5]];portConstraint=eastwest;whiteSpace=wrap;html=1;" vertex="1" parent="rH_Ifb9CREqOWuZM-UfC-55">
          <mxGeometry y="30" width="230" height="26" as="geometry" />
        </mxCell>
        <mxCell id="rH_Ifb9CREqOWuZM-UfC-57" value="- Manufacturers = [&quot;Rummo&quot;]" style="text;strokeColor=none;fillColor=none;align=left;verticalAlign=top;spacingLeft=4;spacingRight=4;overflow=hidden;rotatable=0;points=[[0,0.5],[1,0.5]];portConstraint=eastwest;whiteSpace=wrap;html=1;" vertex="1" parent="rH_Ifb9CREqOWuZM-UfC-55">
          <mxGeometry y="56" width="230" height="26" as="geometry" />
        </mxCell>
        <mxCell id="rH_Ifb9CREqOWuZM-UfC-58" value="- Days to deliver = 2" style="text;strokeColor=none;fillColor=none;align=left;verticalAlign=top;spacingLeft=4;spacingRight=4;overflow=hidden;rotatable=0;points=[[0,0.5],[1,0.5]];portConstraint=eastwest;whiteSpace=wrap;html=1;" vertex="1" parent="rH_Ifb9CREqOWuZM-UfC-55">
          <mxGeometry y="82" width="230" height="26" as="geometry" />
        </mxCell>
        <mxCell id="rH_Ifb9CREqOWuZM-UfC-59" style="edgeStyle=orthogonalEdgeStyle;rounded=0;orthogonalLoop=1;jettySize=auto;html=1;entryX=0.5;entryY=0;entryDx=0;entryDy=0;" edge="1" parent="WIyWlLk6GJQsqaUBKTNV-1" source="rH_Ifb9CREqOWuZM-UfC-60" target="M98M4lL8PVVXPSp0lgDI-140">
          <mxGeometry relative="1" as="geometry">
            <Array as="points">
              <mxPoint x="1440" y="640" />
              <mxPoint x="1300" y="640" />
            </Array>
            <mxPoint x="1409" y="665" as="targetPoint" />
          </mxGeometry>
        </mxCell>
        <mxCell id="rH_Ifb9CREqOWuZM-UfC-60" value="SuppContract1: Supplier Contract" style="swimlane;fontStyle=0;childLayout=stackLayout;horizontal=1;startSize=30;fillColor=none;horizontalStack=0;resizeParent=1;resizeParentMax=0;resizeLast=0;collapsible=1;marginBottom=0;whiteSpace=wrap;html=1;" vertex="1" parent="WIyWlLk6GJQsqaUBKTNV-1">
          <mxGeometry x="1329" y="240" width="230" height="56" as="geometry" />
        </mxCell>
        <mxCell id="rH_Ifb9CREqOWuZM-UfC-61" value="- Payment Way = plus 30" style="text;strokeColor=none;fillColor=none;align=left;verticalAlign=top;spacingLeft=4;spacingRight=4;overflow=hidden;rotatable=0;points=[[0,0.5],[1,0.5]];portConstraint=eastwest;whiteSpace=wrap;html=1;" vertex="1" parent="rH_Ifb9CREqOWuZM-UfC-60">
          <mxGeometry y="30" width="230" height="26" as="geometry" />
        </mxCell>
        <mxCell id="rH_Ifb9CREqOWuZM-UfC-62" value="SuppItem1: Supplier Item" style="swimlane;fontStyle=0;childLayout=stackLayout;horizontal=1;startSize=26;fillColor=none;horizontalStack=0;resizeParent=1;resizeParentMax=0;resizeLast=0;collapsible=1;marginBottom=0;whiteSpace=wrap;html=1;" vertex="1" parent="WIyWlLk6GJQsqaUBKTNV-1">
          <mxGeometry x="1209" y="360" width="180" height="236" as="geometry" />
        </mxCell>
        <mxCell id="rH_Ifb9CREqOWuZM-UfC-63" value="- Catalog number = 10" style="text;strokeColor=none;fillColor=none;align=left;verticalAlign=top;spacingLeft=4;spacingRight=4;overflow=hidden;rotatable=0;points=[[0,0.5],[1,0.5]];portConstraint=eastwest;whiteSpace=wrap;html=1;" vertex="1" parent="rH_Ifb9CREqOWuZM-UfC-62">
          <mxGeometry y="26" width="180" height="26" as="geometry" />
        </mxCell>
        <mxCell id="rH_Ifb9CREqOWuZM-UfC-64" value="- Market ID = 101" style="text;strokeColor=none;fillColor=none;align=left;verticalAlign=top;spacingLeft=4;spacingRight=4;overflow=hidden;rotatable=0;points=[[0,0.5],[1,0.5]];portConstraint=eastwest;whiteSpace=wrap;html=1;" vertex="1" parent="rH_Ifb9CREqOWuZM-UfC-62">
          <mxGeometry y="52" width="180" height="28" as="geometry" />
        </mxCell>
        <mxCell id="rH_Ifb9CREqOWuZM-UfC-65" value="- Name = &quot;pasta&quot;" style="text;strokeColor=none;fillColor=none;align=left;verticalAlign=top;spacingLeft=4;spacingRight=4;overflow=hidden;rotatable=0;points=[[0,0.5],[1,0.5]];portConstraint=eastwest;whiteSpace=wrap;html=1;" vertex="1" parent="rH_Ifb9CREqOWuZM-UfC-62">
          <mxGeometry y="80" width="180" height="26" as="geometry" />
        </mxCell>
        <mxCell id="rH_Ifb9CREqOWuZM-UfC-66" value="- Manufacturer = &quot;Rummo&quot;" style="text;strokeColor=none;fillColor=none;align=left;verticalAlign=top;spacingLeft=4;spacingRight=4;overflow=hidden;rotatable=0;points=[[0,0.5],[1,0.5]];portConstraint=eastwest;whiteSpace=wrap;html=1;" vertex="1" parent="rH_Ifb9CREqOWuZM-UfC-62">
          <mxGeometry y="106" width="180" height="26" as="geometry" />
        </mxCell>
        <mxCell id="rH_Ifb9CREqOWuZM-UfC-67" value="- Catagory =&amp;nbsp; &quot;Legumes&quot;" style="text;strokeColor=none;fillColor=none;align=left;verticalAlign=top;spacingLeft=4;spacingRight=4;overflow=hidden;rotatable=0;points=[[0,0.5],[1,0.5]];portConstraint=eastwest;whiteSpace=wrap;html=1;" vertex="1" parent="rH_Ifb9CREqOWuZM-UfC-62">
          <mxGeometry y="132" width="180" height="26" as="geometry" />
        </mxCell>
        <mxCell id="rH_Ifb9CREqOWuZM-UfC-68" value="- Unit price = 2" style="text;strokeColor=none;fillColor=none;align=left;verticalAlign=top;spacingLeft=4;spacingRight=4;overflow=hidden;rotatable=0;points=[[0,0.5],[1,0.5]];portConstraint=eastwest;whiteSpace=wrap;html=1;" vertex="1" parent="rH_Ifb9CREqOWuZM-UfC-62">
          <mxGeometry y="158" width="180" height="26" as="geometry" />
        </mxCell>
        <mxCell id="rH_Ifb9CREqOWuZM-UfC-69" value="- Unit Weight = 10" style="text;strokeColor=none;fillColor=none;align=left;verticalAlign=top;spacingLeft=4;spacingRight=4;overflow=hidden;rotatable=0;points=[[0,0.5],[1,0.5]];portConstraint=eastwest;whiteSpace=wrap;html=1;" vertex="1" parent="rH_Ifb9CREqOWuZM-UfC-62">
          <mxGeometry y="184" width="180" height="26" as="geometry" />
        </mxCell>
        <mxCell id="rH_Ifb9CREqOWuZM-UfC-70" value="- Number of units = 500" style="text;strokeColor=none;fillColor=none;align=left;verticalAlign=top;spacingLeft=4;spacingRight=4;overflow=hidden;rotatable=0;points=[[0,0.5],[1,0.5]];portConstraint=eastwest;whiteSpace=wrap;html=1;" vertex="1" parent="rH_Ifb9CREqOWuZM-UfC-62">
          <mxGeometry y="210" width="180" height="26" as="geometry" />
        </mxCell>
        <mxCell id="rH_Ifb9CREqOWuZM-UfC-96" value="" style="endArrow=none;html=1;rounded=0;entryX=-0.013;entryY=0.181;entryDx=0;entryDy=0;entryPerimeter=0;" edge="1" parent="WIyWlLk6GJQsqaUBKTNV-1" target="rH_Ifb9CREqOWuZM-UfC-61">
          <mxGeometry width="50" height="50" relative="1" as="geometry">
            <mxPoint x="1139" y="274.9999999999999" as="sourcePoint" />
            <mxPoint x="1319" y="275" as="targetPoint" />
          </mxGeometry>
        </mxCell>
        <mxCell id="rH_Ifb9CREqOWuZM-UfC-100" value="" style="endArrow=diamondThin;endFill=0;endSize=24;html=1;rounded=0;exitX=0.457;exitY=-0.013;exitDx=0;exitDy=0;exitPerimeter=0;entryX=0.343;entryY=1.077;entryDx=0;entryDy=0;entryPerimeter=0;" edge="1" parent="WIyWlLk6GJQsqaUBKTNV-1" source="rH_Ifb9CREqOWuZM-UfC-62" target="rH_Ifb9CREqOWuZM-UfC-61">
          <mxGeometry width="160" relative="1" as="geometry">
            <mxPoint x="1239" y="306.40999999999997" as="sourcePoint" />
            <mxPoint x="1399" y="306.40999999999997" as="targetPoint" />
            <Array as="points">
              <mxPoint x="1291" y="320" />
              <mxPoint x="1408" y="320" />
            </Array>
          </mxGeometry>
        </mxCell>
        <mxCell id="rH_Ifb9CREqOWuZM-UfC-102" value="supCardMap: SupplierCardMapper&amp;nbsp; &amp;nbsp;" style="swimlane;fontStyle=0;childLayout=stackLayout;horizontal=1;startSize=30;fillColor=none;horizontalStack=0;resizeParent=1;resizeParentMax=0;resizeLast=0;collapsible=1;marginBottom=0;whiteSpace=wrap;html=1;" vertex="1" parent="WIyWlLk6GJQsqaUBKTNV-1">
          <mxGeometry x="1399" y="40" width="140" height="40" as="geometry" />
        </mxCell>
        <mxCell id="rH_Ifb9CREqOWuZM-UfC-103" value="" style="endArrow=diamondThin;endFill=0;endSize=24;html=1;rounded=0;" edge="1" parent="WIyWlLk6GJQsqaUBKTNV-1">
          <mxGeometry width="160" relative="1" as="geometry">
            <mxPoint x="1329" y="60" as="sourcePoint" />
            <mxPoint x="1399" y="59.82000000000002" as="targetPoint" />
          </mxGeometry>
        </mxCell>
        <mxCell id="rH_Ifb9CREqOWuZM-UfC-104" value="contactMap: ContactDataMapper" style="swimlane;fontStyle=0;childLayout=stackLayout;horizontal=1;startSize=26;fillColor=none;horizontalStack=0;resizeParent=1;resizeParentMax=0;resizeLast=0;collapsible=1;marginBottom=0;whiteSpace=wrap;html=1;" vertex="1" parent="WIyWlLk6GJQsqaUBKTNV-1">
          <mxGeometry x="860" y="160" width="140" height="40" as="geometry" />
        </mxCell>
        <mxCell id="rH_Ifb9CREqOWuZM-UfC-105" value="" style="endArrow=diamondThin;endFill=0;endSize=24;html=1;rounded=0;exitX=0.002;exitY=0.181;exitDx=0;exitDy=0;exitPerimeter=0;" edge="1" parent="WIyWlLk6GJQsqaUBKTNV-1" source="rH_Ifb9CREqOWuZM-UfC-46">
          <mxGeometry width="160" relative="1" as="geometry">
            <mxPoint x="879" y="109.59" as="sourcePoint" />
            <mxPoint x="879" y="160.00000000000003" as="targetPoint" />
            <Array as="points">
              <mxPoint x="879" y="83" />
            </Array>
          </mxGeometry>
        </mxCell>
        <mxCell id="rH_Ifb9CREqOWuZM-UfC-106" value="supItemMap: SupplierItemDataMapper" style="swimlane;fontStyle=0;childLayout=stackLayout;horizontal=1;startSize=26;fillColor=none;horizontalStack=0;resizeParent=1;resizeParentMax=0;resizeLast=0;collapsible=1;marginBottom=0;whiteSpace=wrap;html=1;" vertex="1" parent="WIyWlLk6GJQsqaUBKTNV-1">
          <mxGeometry x="959" y="439" width="140" height="40" as="geometry" />
        </mxCell>
        <mxCell id="rH_Ifb9CREqOWuZM-UfC-109" style="edgeStyle=orthogonalEdgeStyle;rounded=0;orthogonalLoop=1;jettySize=auto;html=1;entryX=0;entryY=0.5;entryDx=0;entryDy=0;" edge="1" parent="WIyWlLk6GJQsqaUBKTNV-1" source="rH_Ifb9CREqOWuZM-UfC-110" target="rH_Ifb9CREqOWuZM-UfC-56">
          <mxGeometry relative="1" as="geometry">
            <Array as="points">
              <mxPoint x="889" y="618" />
              <mxPoint x="889" y="283" />
            </Array>
          </mxGeometry>
        </mxCell>
        <mxCell id="rH_Ifb9CREqOWuZM-UfC-110" value="adminController: AdminController" style="swimlane;fontStyle=0;childLayout=stackLayout;horizontal=1;startSize=26;fillColor=none;horizontalStack=0;resizeParent=1;resizeParentMax=0;resizeLast=0;collapsible=1;marginBottom=0;whiteSpace=wrap;html=1;" vertex="1" parent="WIyWlLk6GJQsqaUBKTNV-1">
          <mxGeometry x="899" y="598" width="140" height="40" as="geometry" />
        </mxCell>
        <mxCell id="rH_Ifb9CREqOWuZM-UfC-111" style="edgeStyle=orthogonalEdgeStyle;rounded=0;orthogonalLoop=1;jettySize=auto;html=1;exitX=0;exitY=0.5;exitDx=0;exitDy=0;entryX=0.99;entryY=0.047;entryDx=0;entryDy=0;entryPerimeter=0;" edge="1" parent="WIyWlLk6GJQsqaUBKTNV-1" source="rH_Ifb9CREqOWuZM-UfC-50" target="rH_Ifb9CREqOWuZM-UfC-47">
          <mxGeometry relative="1" as="geometry" />
        </mxCell>
        <mxCell id="rH_Ifb9CREqOWuZM-UfC-112" value="" style="endArrow=diamondThin;endFill=0;endSize=24;html=1;rounded=0;exitX=-0.024;exitY=0.049;exitDx=0;exitDy=0;exitPerimeter=0;entryX=0.41;entryY=-0.058;entryDx=0;entryDy=0;entryPerimeter=0;" edge="1" parent="WIyWlLk6GJQsqaUBKTNV-1" source="rH_Ifb9CREqOWuZM-UfC-62" target="rH_Ifb9CREqOWuZM-UfC-106">
          <mxGeometry width="160" relative="1" as="geometry">
            <mxPoint x="880" y="490" as="sourcePoint" />
            <mxPoint x="1040" y="490" as="targetPoint" />
            <Array as="points">
              <mxPoint x="1016" y="372" />
            </Array>
          </mxGeometry>
        </mxCell>
        <mxCell id="SR2MS8EgbZTcMmg2NYzx-2" value="" style="endArrow=classic;html=1;rounded=0;exitX=0;exitY=1;exitDx=0;exitDy=0;entryX=0.5;entryY=0;entryDx=0;entryDy=0;" edge="1" parent="WIyWlLk6GJQsqaUBKTNV-1" source="qQHOARV6SDKUEVZUDNVl-1" target="IWr60KSukv1CMMSqz1xH-234">
          <mxGeometry width="50" height="50" relative="1" as="geometry">
            <mxPoint x="390" y="350" as="sourcePoint" />
            <mxPoint x="440" y="300" as="targetPoint" />
          </mxGeometry>
        </mxCell>
        <mxCell id="89CcJsVy4Urx-jafi869-5" value="using" style="edgeLabel;html=1;align=center;verticalAlign=middle;resizable=0;points=[];" connectable="0" vertex="1" parent="SR2MS8EgbZTcMmg2NYzx-2">
          <mxGeometry x="-0.1032" relative="1" as="geometry">
            <mxPoint as="offset" />
          </mxGeometry>
        </mxCell>
        <mxCell id="SR2MS8EgbZTcMmg2NYzx-4" value="" style="endArrow=diamondThin;endFill=0;endSize=24;html=1;rounded=0;exitX=-0.011;exitY=0.953;exitDx=0;exitDy=0;exitPerimeter=0;entryX=1;entryY=1;entryDx=0;entryDy=0;startArrow=none;startFill=0;" edge="1" parent="WIyWlLk6GJQsqaUBKTNV-1" source="VhmcF22pDkBif8iSbu52-1" target="IWr60KSukv1CMMSqz1xH-234">
          <mxGeometry width="160" relative="1" as="geometry">
            <mxPoint x="380" y="410" as="sourcePoint" />
            <mxPoint x="400" y="480" as="targetPoint" />
          </mxGeometry>
        </mxCell>
        <mxCell id="89CcJsVy4Urx-jafi869-6" value="access" style="edgeLabel;html=1;align=center;verticalAlign=middle;resizable=0;points=[];" connectable="0" vertex="1" parent="SR2MS8EgbZTcMmg2NYzx-4">
          <mxGeometry x="-0.196" relative="1" as="geometry">
            <mxPoint as="offset" />
          </mxGeometry>
        </mxCell>
        <mxCell id="SR2MS8EgbZTcMmg2NYzx-5" value="" style="endArrow=diamondThin;endFill=0;endSize=24;html=1;rounded=0;entryX=0;entryY=1;entryDx=0;entryDy=0;exitX=0;exitY=-0.007;exitDx=0;exitDy=0;exitPerimeter=0;startArrow=none;startFill=0;" edge="1" parent="WIyWlLk6GJQsqaUBKTNV-1" source="jIfuO9peZlvy2pWs-0o6-11" target="qQHOARV6SDKUEVZUDNVl-4">
          <mxGeometry width="160" relative="1" as="geometry">
            <mxPoint x="380" y="410" as="sourcePoint" />
            <mxPoint x="540" y="410" as="targetPoint" />
            <Array as="points">
              <mxPoint x="80" y="423" />
            </Array>
          </mxGeometry>
        </mxCell>
        <mxCell id="89CcJsVy4Urx-jafi869-7" value="access" style="edgeLabel;html=1;align=center;verticalAlign=middle;resizable=0;points=[];" connectable="0" vertex="1" parent="SR2MS8EgbZTcMmg2NYzx-5">
          <mxGeometry x="-0.277" y="-2" relative="1" as="geometry">
            <mxPoint as="offset" />
          </mxGeometry>
        </mxCell>
        <mxCell id="M98M4lL8PVVXPSp0lgDI-0" value="&lt;span style=&quot;font-weight: normal; font-size: 12px;&quot;&gt;&lt;font style=&quot;font-size: 12px;&quot;&gt;Contains&lt;/font&gt;&lt;/span&gt;" style="edgeLabel;html=1;align=center;verticalAlign=middle;resizable=0;points=[];fontStyle=1;fontSize=12;" connectable="0" vertex="1" parent="WIyWlLk6GJQsqaUBKTNV-1">
          <mxGeometry x="2700" y="365.7142857142858" as="geometry" />
        </mxCell>
        <mxCell id="M98M4lL8PVVXPSp0lgDI-1" value="&lt;span style=&quot;font-weight: normal; font-size: 12px;&quot;&gt;&lt;font style=&quot;font-size: 12px;&quot;&gt;Contains&lt;/font&gt;&lt;/span&gt;" style="edgeLabel;html=1;align=center;verticalAlign=middle;resizable=0;points=[];fontStyle=1;fontSize=12;" connectable="0" vertex="1" parent="WIyWlLk6GJQsqaUBKTNV-1">
          <mxGeometry x="2700" y="645.7142857142858" as="geometry" />
        </mxCell>
        <mxCell id="M98M4lL8PVVXPSp0lgDI-2" value="&lt;span style=&quot;font-weight: normal; font-size: 12px;&quot;&gt;&lt;font style=&quot;font-size: 12px;&quot;&gt;Using&lt;/font&gt;&lt;/span&gt;" style="edgeLabel;html=1;align=center;verticalAlign=middle;resizable=0;points=[];fontStyle=1;fontSize=12;" connectable="0" vertex="1" parent="WIyWlLk6GJQsqaUBKTNV-1">
          <mxGeometry x="1940" y="315.7142857142858" as="geometry" />
        </mxCell>
        <mxCell id="M98M4lL8PVVXPSp0lgDI-3" value="&lt;span style=&quot;font-weight: normal; font-size: 12px;&quot;&gt;&lt;font style=&quot;font-size: 12px;&quot;&gt;Using&lt;/font&gt;&lt;/span&gt;" style="edgeLabel;html=1;align=center;verticalAlign=middle;resizable=0;points=[];fontStyle=1;fontSize=12;" connectable="0" vertex="1" parent="WIyWlLk6GJQsqaUBKTNV-1">
          <mxGeometry x="1940" y="374.7142857142858" as="geometry">
            <mxPoint x="-6" as="offset" />
          </mxGeometry>
        </mxCell>
        <mxCell id="M98M4lL8PVVXPSp0lgDI-4" value="&lt;span style=&quot;font-weight: normal; font-size: 12px;&quot;&gt;&lt;font style=&quot;font-size: 12px;&quot;&gt;Using&lt;/font&gt;&lt;/span&gt;" style="edgeLabel;html=1;align=center;verticalAlign=middle;resizable=0;points=[];fontStyle=1;fontSize=12;" connectable="0" vertex="1" parent="WIyWlLk6GJQsqaUBKTNV-1">
          <mxGeometry x="1940" y="435.7142857142858" as="geometry" />
        </mxCell>
        <mxCell id="M98M4lL8PVVXPSp0lgDI-5" value="&lt;span style=&quot;font-weight: normal; font-size: 12px;&quot;&gt;&lt;font style=&quot;font-size: 12px;&quot;&gt;Controlls&lt;/font&gt;&lt;/span&gt;" style="edgeLabel;html=1;align=center;verticalAlign=middle;resizable=0;points=[];fontStyle=1;fontSize=12;" connectable="0" vertex="1" parent="WIyWlLk6GJQsqaUBKTNV-1">
          <mxGeometry x="2190" y="255.71428571428578" as="geometry" />
        </mxCell>
        <mxCell id="M98M4lL8PVVXPSp0lgDI-6" value="&lt;span style=&quot;font-weight: normal; font-size: 12px;&quot;&gt;&lt;font style=&quot;font-size: 12px;&quot;&gt;Controlls&lt;/font&gt;&lt;/span&gt;" style="edgeLabel;html=1;align=center;verticalAlign=middle;resizable=0;points=[];fontStyle=1;fontSize=12;" connectable="0" vertex="1" parent="WIyWlLk6GJQsqaUBKTNV-1">
          <mxGeometry x="2180" y="295.7142857142858" as="geometry" />
        </mxCell>
        <mxCell id="M98M4lL8PVVXPSp0lgDI-7" value="&lt;span style=&quot;font-weight: normal; font-size: 12px;&quot;&gt;&lt;font style=&quot;font-size: 12px;&quot;&gt;Controlls&lt;/font&gt;&lt;/span&gt;" style="edgeLabel;html=1;align=center;verticalAlign=middle;resizable=0;points=[];fontStyle=1;fontSize=12;" connectable="0" vertex="1" parent="WIyWlLk6GJQsqaUBKTNV-1">
          <mxGeometry x="2190" y="355.7142857142858" as="geometry" />
        </mxCell>
        <mxCell id="M98M4lL8PVVXPSp0lgDI-8" value="&lt;span style=&quot;font-weight: normal; font-size: 12px;&quot;&gt;&lt;font style=&quot;font-size: 12px;&quot;&gt;Controlls&lt;/font&gt;&lt;/span&gt;" style="edgeLabel;html=1;align=center;verticalAlign=middle;resizable=0;points=[];fontStyle=1;fontSize=12;" connectable="0" vertex="1" parent="WIyWlLk6GJQsqaUBKTNV-1">
          <mxGeometry x="2200" y="415.7142857142858" as="geometry" />
        </mxCell>
        <mxCell id="M98M4lL8PVVXPSp0lgDI-9" value="&lt;span style=&quot;font-weight: normal; font-size: 12px;&quot;&gt;&lt;font style=&quot;font-size: 12px;&quot;&gt;Controlls&lt;/font&gt;&lt;/span&gt;" style="edgeLabel;html=1;align=center;verticalAlign=middle;resizable=0;points=[];fontStyle=1;fontSize=12;" connectable="0" vertex="1" parent="WIyWlLk6GJQsqaUBKTNV-1">
          <mxGeometry x="2190" y="495.7142857142858" as="geometry" />
        </mxCell>
        <mxCell id="M98M4lL8PVVXPSp0lgDI-10" value="&lt;span style=&quot;font-weight: normal; font-size: 12px;&quot;&gt;&lt;font style=&quot;font-size: 12px;&quot;&gt;Controlls&lt;/font&gt;&lt;/span&gt;" style="edgeLabel;html=1;align=center;verticalAlign=middle;resizable=0;points=[];fontStyle=1;fontSize=12;" connectable="0" vertex="1" parent="WIyWlLk6GJQsqaUBKTNV-1">
          <mxGeometry x="2180" y="455.7142857142858" as="geometry" />
        </mxCell>
        <mxCell id="M98M4lL8PVVXPSp0lgDI-11" value="&lt;span style=&quot;font-weight: normal; font-size: 12px;&quot;&gt;&lt;font style=&quot;font-size: 12px;&quot;&gt;Using&lt;/font&gt;&lt;/span&gt;" style="edgeLabel;html=1;align=center;verticalAlign=middle;resizable=0;points=[];fontStyle=1;fontSize=12;" connectable="0" vertex="1" parent="WIyWlLk6GJQsqaUBKTNV-1">
          <mxGeometry x="2460" y="485.7142857142858" as="geometry" />
        </mxCell>
        <mxCell id="M98M4lL8PVVXPSp0lgDI-12" value="&lt;span style=&quot;font-weight: normal; font-size: 12px;&quot;&gt;&lt;font style=&quot;font-size: 12px;&quot;&gt;Using&lt;/font&gt;&lt;/span&gt;" style="edgeLabel;html=1;align=center;verticalAlign=middle;resizable=0;points=[];fontStyle=1;fontSize=12;" connectable="0" vertex="1" parent="WIyWlLk6GJQsqaUBKTNV-1">
          <mxGeometry x="2390" y="595.7142857142858" as="geometry" />
        </mxCell>
        <mxCell id="M98M4lL8PVVXPSp0lgDI-13" value="&lt;span style=&quot;font-weight: normal; font-size: 12px;&quot;&gt;&lt;font style=&quot;font-size: 12px;&quot;&gt;Using&lt;/font&gt;&lt;/span&gt;" style="edgeLabel;html=1;align=center;verticalAlign=middle;resizable=0;points=[];fontStyle=1;fontSize=12;" connectable="0" vertex="1" parent="WIyWlLk6GJQsqaUBKTNV-1">
          <mxGeometry x="2390" y="675.7142857142858" as="geometry" />
        </mxCell>
        <mxCell id="M98M4lL8PVVXPSp0lgDI-15" value="&lt;span style=&quot;font-weight: normal; font-size: 12px;&quot;&gt;&lt;font style=&quot;font-size: 12px;&quot;&gt;Controlls&lt;/font&gt;&lt;/span&gt;" style="edgeLabel;html=1;align=center;verticalAlign=middle;resizable=0;points=[];fontStyle=1;fontSize=12;" connectable="0" vertex="1" parent="WIyWlLk6GJQsqaUBKTNV-1">
          <mxGeometry x="3742" y="545.4242857142858" as="geometry" />
        </mxCell>
        <mxCell id="M98M4lL8PVVXPSp0lgDI-16" value="&lt;span style=&quot;font-weight: normal; font-size: 12px;&quot;&gt;&lt;font style=&quot;font-size: 12px;&quot;&gt;Controlls&lt;/font&gt;&lt;/span&gt;" style="edgeLabel;html=1;align=center;verticalAlign=middle;resizable=0;points=[];fontStyle=1;fontSize=12;" connectable="0" vertex="1" parent="WIyWlLk6GJQsqaUBKTNV-1">
          <mxGeometry x="3572" y="545.4242857142858" as="geometry" />
        </mxCell>
        <mxCell id="M98M4lL8PVVXPSp0lgDI-17" value="&lt;span style=&quot;font-weight: normal; font-size: 12px;&quot;&gt;&lt;font style=&quot;font-size: 12px;&quot;&gt;Controlls&lt;/font&gt;&lt;/span&gt;" style="edgeLabel;html=1;align=center;verticalAlign=middle;resizable=0;points=[];fontStyle=1;fontSize=12;" connectable="0" vertex="1" parent="WIyWlLk6GJQsqaUBKTNV-1">
          <mxGeometry x="3452" y="545.4242857142858" as="geometry" />
        </mxCell>
        <mxCell id="M98M4lL8PVVXPSp0lgDI-18" value="&lt;span style=&quot;font-weight: normal; font-size: 12px;&quot;&gt;&lt;font style=&quot;font-size: 12px;&quot;&gt;Controlls&lt;/font&gt;&lt;/span&gt;" style="edgeLabel;html=1;align=center;verticalAlign=middle;resizable=0;points=[];fontStyle=1;fontSize=12;" connectable="0" vertex="1" parent="WIyWlLk6GJQsqaUBKTNV-1">
          <mxGeometry x="3642" y="385.42428571428576" as="geometry" />
        </mxCell>
        <mxCell id="M98M4lL8PVVXPSp0lgDI-19" value="&lt;span style=&quot;font-weight: normal; font-size: 12px;&quot;&gt;&lt;font style=&quot;font-size: 12px;&quot;&gt;Controlls&lt;/font&gt;&lt;/span&gt;" style="edgeLabel;html=1;align=center;verticalAlign=middle;resizable=0;points=[];fontStyle=1;fontSize=12;" connectable="0" vertex="1" parent="WIyWlLk6GJQsqaUBKTNV-1">
          <mxGeometry x="3782" y="355.42428571428576" as="geometry" />
        </mxCell>
        <mxCell id="M98M4lL8PVVXPSp0lgDI-22" value="&lt;span style=&quot;font-weight: normal; font-size: 12px;&quot;&gt;&lt;font style=&quot;font-size: 12px;&quot;&gt;Manages&lt;/font&gt;&lt;/span&gt;" style="edgeLabel;html=1;align=center;verticalAlign=middle;resizable=0;points=[];fontStyle=1;fontSize=12;" connectable="0" vertex="1" parent="WIyWlLk6GJQsqaUBKTNV-1">
          <mxGeometry x="3512" y="795.4242857142858" as="geometry" />
        </mxCell>
        <mxCell id="M98M4lL8PVVXPSp0lgDI-23" value="&lt;span style=&quot;font-weight: normal; font-size: 12px;&quot;&gt;&lt;font style=&quot;font-size: 12px;&quot;&gt;Manages&lt;/font&gt;&lt;/span&gt;" style="edgeLabel;html=1;align=center;verticalAlign=middle;resizable=0;points=[];fontStyle=1;fontSize=12;" connectable="0" vertex="1" parent="WIyWlLk6GJQsqaUBKTNV-1">
          <mxGeometry x="3632" y="735.4242857142858" as="geometry" />
        </mxCell>
        <mxCell id="M98M4lL8PVVXPSp0lgDI-25" value="&lt;span style=&quot;font-weight: normal; font-size: 12px;&quot;&gt;&lt;font style=&quot;font-size: 12px;&quot;&gt;Manages&lt;/font&gt;&lt;/span&gt;" style="edgeLabel;html=1;align=center;verticalAlign=middle;resizable=0;points=[];fontStyle=1;fontSize=12;" connectable="0" vertex="1" parent="WIyWlLk6GJQsqaUBKTNV-1">
          <mxGeometry x="3832" y="735.4242857142858" as="geometry" />
        </mxCell>
        <mxCell id="M98M4lL8PVVXPSp0lgDI-26" value="orderController: OrderController" style="swimlane;fontStyle=0;childLayout=stackLayout;horizontal=1;startSize=26;fillColor=none;horizontalStack=0;resizeParent=1;resizeParentMax=0;resizeLast=0;collapsible=1;marginBottom=0;whiteSpace=wrap;html=1;" vertex="1" parent="WIyWlLk6GJQsqaUBKTNV-1">
          <mxGeometry x="1990" y="305" width="140" height="40" as="geometry" />
        </mxCell>
        <mxCell id="M98M4lL8PVVXPSp0lgDI-27" value="suppController: SupplierController" style="swimlane;fontStyle=0;childLayout=stackLayout;horizontal=1;startSize=26;fillColor=none;horizontalStack=0;resizeParent=1;resizeParentMax=0;resizeLast=0;collapsible=1;marginBottom=0;whiteSpace=wrap;html=1;" vertex="1" parent="WIyWlLk6GJQsqaUBKTNV-1">
          <mxGeometry x="1990" y="365" width="140" height="40" as="geometry" />
        </mxCell>
        <mxCell id="M98M4lL8PVVXPSp0lgDI-28" style="edgeStyle=orthogonalEdgeStyle;rounded=0;orthogonalLoop=1;jettySize=auto;html=1;exitX=1;exitY=0.75;exitDx=0;exitDy=0;entryX=0;entryY=0;entryDx=0;entryDy=0;" edge="1" parent="WIyWlLk6GJQsqaUBKTNV-1" source="M98M4lL8PVVXPSp0lgDI-32" target="M98M4lL8PVVXPSp0lgDI-42">
          <mxGeometry relative="1" as="geometry">
            <Array as="points">
              <mxPoint x="2160" y="453" />
              <mxPoint x="2160" y="307" />
              <mxPoint x="2200" y="307" />
              <mxPoint x="2200" y="327" />
            </Array>
          </mxGeometry>
        </mxCell>
        <mxCell id="M98M4lL8PVVXPSp0lgDI-29" style="edgeStyle=orthogonalEdgeStyle;rounded=0;orthogonalLoop=1;jettySize=auto;html=1;entryX=0;entryY=0;entryDx=0;entryDy=0;" edge="1" parent="WIyWlLk6GJQsqaUBKTNV-1" source="M98M4lL8PVVXPSp0lgDI-32" target="M98M4lL8PVVXPSp0lgDI-40">
          <mxGeometry relative="1" as="geometry">
            <Array as="points">
              <mxPoint x="2060" y="492" />
              <mxPoint x="1700" y="492" />
              <mxPoint x="1700" y="262" />
              <mxPoint x="2230" y="262" />
            </Array>
          </mxGeometry>
        </mxCell>
        <mxCell id="M98M4lL8PVVXPSp0lgDI-30" style="edgeStyle=orthogonalEdgeStyle;rounded=0;orthogonalLoop=1;jettySize=auto;html=1;exitX=1;exitY=0.5;exitDx=0;exitDy=0;entryX=0;entryY=0.25;entryDx=0;entryDy=0;" edge="1" parent="WIyWlLk6GJQsqaUBKTNV-1" source="M98M4lL8PVVXPSp0lgDI-32" target="M98M4lL8PVVXPSp0lgDI-44">
          <mxGeometry relative="1" as="geometry" />
        </mxCell>
        <mxCell id="M98M4lL8PVVXPSp0lgDI-31" style="edgeStyle=orthogonalEdgeStyle;rounded=0;orthogonalLoop=1;jettySize=auto;html=1;entryX=0;entryY=1;entryDx=0;entryDy=0;" edge="1" parent="WIyWlLk6GJQsqaUBKTNV-1" source="M98M4lL8PVVXPSp0lgDI-32" target="M98M4lL8PVVXPSp0lgDI-48">
          <mxGeometry relative="1" as="geometry">
            <Array as="points">
              <mxPoint x="2110" y="502" />
              <mxPoint x="2230" y="502" />
            </Array>
          </mxGeometry>
        </mxCell>
        <mxCell id="M98M4lL8PVVXPSp0lgDI-32" value="adminController: AdminController" style="swimlane;fontStyle=0;childLayout=stackLayout;horizontal=1;startSize=26;fillColor=none;horizontalStack=0;resizeParent=1;resizeParentMax=0;resizeLast=0;collapsible=1;marginBottom=0;whiteSpace=wrap;html=1;" vertex="1" parent="WIyWlLk6GJQsqaUBKTNV-1">
          <mxGeometry x="1990" y="423" width="140" height="40" as="geometry" />
        </mxCell>
        <mxCell id="M98M4lL8PVVXPSp0lgDI-33" value="orderMenu: OrderMenu" style="swimlane;fontStyle=0;childLayout=stackLayout;horizontal=1;startSize=26;fillColor=none;horizontalStack=0;resizeParent=1;resizeParentMax=0;resizeLast=0;collapsible=1;marginBottom=0;whiteSpace=wrap;html=1;" vertex="1" parent="WIyWlLk6GJQsqaUBKTNV-1">
          <mxGeometry x="1750" y="307" width="140" height="40" as="geometry" />
        </mxCell>
        <mxCell id="M98M4lL8PVVXPSp0lgDI-34" value="suppMenu: SupplierMenu" style="swimlane;fontStyle=0;childLayout=stackLayout;horizontal=1;startSize=26;fillColor=none;horizontalStack=0;resizeParent=1;resizeParentMax=0;resizeLast=0;collapsible=1;marginBottom=0;whiteSpace=wrap;html=1;" vertex="1" parent="WIyWlLk6GJQsqaUBKTNV-1">
          <mxGeometry x="1750" y="367" width="140" height="40" as="geometry" />
        </mxCell>
        <mxCell id="M98M4lL8PVVXPSp0lgDI-35" value="AM: AdminMenu" style="swimlane;fontStyle=0;childLayout=stackLayout;horizontal=1;startSize=26;fillColor=none;horizontalStack=0;resizeParent=1;resizeParentMax=0;resizeLast=0;collapsible=1;marginBottom=0;whiteSpace=wrap;html=1;" vertex="1" parent="WIyWlLk6GJQsqaUBKTNV-1">
          <mxGeometry x="1750" y="427" width="140" height="40" as="geometry" />
        </mxCell>
        <mxCell id="M98M4lL8PVVXPSp0lgDI-36" value="" style="endArrow=open;endFill=1;endSize=12;html=1;rounded=0;exitX=1;exitY=0.5;exitDx=0;exitDy=0;" edge="1" parent="WIyWlLk6GJQsqaUBKTNV-1" source="M98M4lL8PVVXPSp0lgDI-33">
          <mxGeometry width="160" relative="1" as="geometry">
            <mxPoint x="1840" y="376.9999999999999" as="sourcePoint" />
            <mxPoint x="1990" y="325" as="targetPoint" />
          </mxGeometry>
        </mxCell>
        <mxCell id="M98M4lL8PVVXPSp0lgDI-37" value="" style="endArrow=open;endFill=1;endSize=12;html=1;rounded=0;exitX=1;exitY=0.5;exitDx=0;exitDy=0;" edge="1" parent="WIyWlLk6GJQsqaUBKTNV-1">
          <mxGeometry width="160" relative="1" as="geometry">
            <mxPoint x="1890" y="386" as="sourcePoint" />
            <mxPoint x="1990" y="386" as="targetPoint" />
          </mxGeometry>
        </mxCell>
        <mxCell id="M98M4lL8PVVXPSp0lgDI-38" value="" style="endArrow=open;endFill=1;endSize=12;html=1;rounded=0;entryX=0;entryY=0.5;entryDx=0;entryDy=0;exitX=1;exitY=0.5;exitDx=0;exitDy=0;" edge="1" parent="WIyWlLk6GJQsqaUBKTNV-1">
          <mxGeometry width="160" relative="1" as="geometry">
            <mxPoint x="1890" y="444" as="sourcePoint" />
            <mxPoint x="1990" y="442" as="targetPoint" />
          </mxGeometry>
        </mxCell>
        <mxCell id="M98M4lL8PVVXPSp0lgDI-39" style="edgeStyle=orthogonalEdgeStyle;rounded=0;orthogonalLoop=1;jettySize=auto;html=1;exitX=0.75;exitY=1;exitDx=0;exitDy=0;entryX=0.75;entryY=0;entryDx=0;entryDy=0;endArrow=open;endFill=0;" edge="1" parent="WIyWlLk6GJQsqaUBKTNV-1" source="M98M4lL8PVVXPSp0lgDI-40" target="M98M4lL8PVVXPSp0lgDI-42">
          <mxGeometry relative="1" as="geometry" />
        </mxCell>
        <mxCell id="M98M4lL8PVVXPSp0lgDI-40" value="BDM: BranchDataMapper" style="swimlane;fontStyle=0;childLayout=stackLayout;horizontal=1;startSize=26;fillColor=none;horizontalStack=0;resizeParent=1;resizeParentMax=0;resizeLast=0;collapsible=1;marginBottom=0;whiteSpace=wrap;html=1;" vertex="1" parent="WIyWlLk6GJQsqaUBKTNV-1">
          <mxGeometry x="2230" y="267" width="140" height="40" as="geometry" />
        </mxCell>
        <mxCell id="M98M4lL8PVVXPSp0lgDI-41" style="edgeStyle=orthogonalEdgeStyle;rounded=0;orthogonalLoop=1;jettySize=auto;html=1;exitX=0.75;exitY=1;exitDx=0;exitDy=0;entryX=0.75;entryY=0;entryDx=0;entryDy=0;endArrow=open;endFill=0;" edge="1" parent="WIyWlLk6GJQsqaUBKTNV-1" source="M98M4lL8PVVXPSp0lgDI-42" target="M98M4lL8PVVXPSp0lgDI-44">
          <mxGeometry relative="1" as="geometry" />
        </mxCell>
        <mxCell id="M98M4lL8PVVXPSp0lgDI-42" value="orderMap: OrderDataMapper" style="swimlane;fontStyle=0;childLayout=stackLayout;horizontal=1;startSize=26;fillColor=none;horizontalStack=0;resizeParent=1;resizeParentMax=0;resizeLast=0;collapsible=1;marginBottom=0;whiteSpace=wrap;html=1;" vertex="1" parent="WIyWlLk6GJQsqaUBKTNV-1">
          <mxGeometry x="2230" y="327" width="140" height="40" as="geometry" />
        </mxCell>
        <mxCell id="M98M4lL8PVVXPSp0lgDI-43" value="" style="endArrow=open;endFill=1;endSize=12;html=1;rounded=0;entryX=0;entryY=0.75;entryDx=0;entryDy=0;" edge="1" parent="M98M4lL8PVVXPSp0lgDI-42" target="M98M4lL8PVVXPSp0lgDI-44">
          <mxGeometry width="160" relative="1" as="geometry">
            <mxPoint x="-100" y="3.259999999999991" as="sourcePoint" />
            <mxPoint x="60" y="3.259999999999991" as="targetPoint" />
          </mxGeometry>
        </mxCell>
        <mxCell id="M98M4lL8PVVXPSp0lgDI-44" value="orderItemMap: OrderDataMapper" style="swimlane;fontStyle=0;childLayout=stackLayout;horizontal=1;startSize=26;fillColor=none;horizontalStack=0;resizeParent=1;resizeParentMax=0;resizeLast=0;collapsible=1;marginBottom=0;whiteSpace=wrap;html=1;" vertex="1" parent="WIyWlLk6GJQsqaUBKTNV-1">
          <mxGeometry x="2230" y="387" width="140" height="40" as="geometry" />
        </mxCell>
        <mxCell id="M98M4lL8PVVXPSp0lgDI-45" value="" style="endArrow=open;endFill=1;endSize=12;html=1;rounded=0;entryX=0;entryY=0.5;entryDx=0;entryDy=0;" edge="1" parent="M98M4lL8PVVXPSp0lgDI-44" target="M98M4lL8PVVXPSp0lgDI-48">
          <mxGeometry width="160" relative="1" as="geometry">
            <mxPoint x="-100" as="sourcePoint" />
            <mxPoint x="60" as="targetPoint" />
          </mxGeometry>
        </mxCell>
        <mxCell id="M98M4lL8PVVXPSp0lgDI-46" style="edgeStyle=orthogonalEdgeStyle;rounded=0;orthogonalLoop=1;jettySize=auto;html=1;exitX=1;exitY=0.25;exitDx=0;exitDy=0;entryX=1;entryY=0.5;entryDx=0;entryDy=0;endArrow=open;endFill=0;" edge="1" parent="WIyWlLk6GJQsqaUBKTNV-1" source="M98M4lL8PVVXPSp0lgDI-48" target="M98M4lL8PVVXPSp0lgDI-51">
          <mxGeometry relative="1" as="geometry">
            <Array as="points">
              <mxPoint x="2440" y="452" />
              <mxPoint x="2440" y="690" />
            </Array>
          </mxGeometry>
        </mxCell>
        <mxCell id="M98M4lL8PVVXPSp0lgDI-47" style="edgeStyle=orthogonalEdgeStyle;rounded=0;orthogonalLoop=1;jettySize=auto;html=1;exitX=1;exitY=0.25;exitDx=0;exitDy=0;entryX=1;entryY=0.25;entryDx=0;entryDy=0;endArrow=open;endFill=0;" edge="1" parent="WIyWlLk6GJQsqaUBKTNV-1" source="M98M4lL8PVVXPSp0lgDI-48" target="M98M4lL8PVVXPSp0lgDI-52">
          <mxGeometry relative="1" as="geometry">
            <Array as="points">
              <mxPoint x="2410" y="452" />
              <mxPoint x="2410" y="742" />
            </Array>
          </mxGeometry>
        </mxCell>
        <mxCell id="M98M4lL8PVVXPSp0lgDI-48" value="supMap: SupplierDataMapper" style="swimlane;fontStyle=0;childLayout=stackLayout;horizontal=1;startSize=26;fillColor=none;horizontalStack=0;resizeParent=1;resizeParentMax=0;resizeLast=0;collapsible=1;marginBottom=0;whiteSpace=wrap;html=1;" vertex="1" parent="WIyWlLk6GJQsqaUBKTNV-1">
          <mxGeometry x="2230" y="442" width="140" height="40" as="geometry" />
        </mxCell>
        <mxCell id="M98M4lL8PVVXPSp0lgDI-49" value="supCardMap: SupplierCardMapper&amp;nbsp; &amp;nbsp;" style="swimlane;fontStyle=0;childLayout=stackLayout;horizontal=1;startSize=26;fillColor=none;horizontalStack=0;resizeParent=1;resizeParentMax=0;resizeLast=0;collapsible=1;marginBottom=0;whiteSpace=wrap;html=1;" vertex="1" parent="WIyWlLk6GJQsqaUBKTNV-1">
          <mxGeometry x="2230" y="522" width="140" height="40" as="geometry" />
        </mxCell>
        <mxCell id="M98M4lL8PVVXPSp0lgDI-50" value="contactMap: ContactDataMapper" style="swimlane;fontStyle=0;childLayout=stackLayout;horizontal=1;startSize=26;fillColor=none;horizontalStack=0;resizeParent=1;resizeParentMax=0;resizeLast=0;collapsible=1;marginBottom=0;whiteSpace=wrap;html=1;" vertex="1" parent="WIyWlLk6GJQsqaUBKTNV-1">
          <mxGeometry x="2230" y="612" width="140" height="40" as="geometry" />
        </mxCell>
        <mxCell id="M98M4lL8PVVXPSp0lgDI-51" value="supItemMap: SupplierItemDataMapper" style="swimlane;fontStyle=0;childLayout=stackLayout;horizontal=1;startSize=26;fillColor=none;horizontalStack=0;resizeParent=1;resizeParentMax=0;resizeLast=0;collapsible=1;marginBottom=0;whiteSpace=wrap;html=1;" vertex="1" parent="WIyWlLk6GJQsqaUBKTNV-1">
          <mxGeometry x="2230" y="670" width="140" height="40" as="geometry" />
        </mxCell>
        <mxCell id="M98M4lL8PVVXPSp0lgDI-52" value="discMap: DiscountDataMapper" style="swimlane;fontStyle=0;childLayout=stackLayout;horizontal=1;startSize=26;fillColor=none;horizontalStack=0;resizeParent=1;resizeParentMax=0;resizeLast=0;collapsible=1;marginBottom=0;whiteSpace=wrap;html=1;" vertex="1" parent="WIyWlLk6GJQsqaUBKTNV-1">
          <mxGeometry x="2230" y="732" width="140" height="40" as="geometry" />
        </mxCell>
        <mxCell id="M98M4lL8PVVXPSp0lgDI-53" value="periodicMap: PeriodicReportDataMapper" style="swimlane;fontStyle=0;childLayout=stackLayout;horizontal=1;startSize=26;fillColor=none;horizontalStack=0;resizeParent=1;resizeParentMax=0;resizeLast=0;collapsible=1;marginBottom=0;whiteSpace=wrap;html=1;" vertex="1" parent="WIyWlLk6GJQsqaUBKTNV-1">
          <mxGeometry x="2230" y="212" width="150" height="40" as="geometry" />
        </mxCell>
        <mxCell id="M98M4lL8PVVXPSp0lgDI-54" value="OrderUnitsDis1: Order units discount" style="swimlane;fontStyle=0;childLayout=stackLayout;horizontal=1;startSize=26;fillColor=none;horizontalStack=0;resizeParent=1;resizeParentMax=0;resizeLast=0;collapsible=1;marginBottom=0;whiteSpace=wrap;html=1;" vertex="1" parent="WIyWlLk6GJQsqaUBKTNV-1">
          <mxGeometry x="2600" y="455" width="140" height="78" as="geometry" />
        </mxCell>
        <mxCell id="M98M4lL8PVVXPSp0lgDI-55" value="- Size = 10" style="text;strokeColor=none;fillColor=none;align=left;verticalAlign=top;spacingLeft=4;spacingRight=4;overflow=hidden;rotatable=0;points=[[0,0.5],[1,0.5]];portConstraint=eastwest;whiteSpace=wrap;html=1;" vertex="1" parent="M98M4lL8PVVXPSp0lgDI-54">
          <mxGeometry y="26" width="140" height="26" as="geometry" />
        </mxCell>
        <mxCell id="M98M4lL8PVVXPSp0lgDI-56" value="- Number of units = 100" style="text;strokeColor=none;fillColor=none;align=left;verticalAlign=top;spacingLeft=4;spacingRight=4;overflow=hidden;rotatable=0;points=[[0,0.5],[1,0.5]];portConstraint=eastwest;whiteSpace=wrap;html=1;" vertex="1" parent="M98M4lL8PVVXPSp0lgDI-54">
          <mxGeometry y="52" width="140" height="26" as="geometry" />
        </mxCell>
        <mxCell id="M98M4lL8PVVXPSp0lgDI-57" value="discMap: DiscountDataMapper" style="swimlane;fontStyle=0;childLayout=stackLayout;horizontal=1;startSize=26;fillColor=none;horizontalStack=0;resizeParent=1;resizeParentMax=0;resizeLast=0;collapsible=1;marginBottom=0;whiteSpace=wrap;html=1;" vertex="1" parent="WIyWlLk6GJQsqaUBKTNV-1">
          <mxGeometry x="2600" y="292" width="140" height="40" as="geometry" />
        </mxCell>
        <mxCell id="M98M4lL8PVVXPSp0lgDI-58" value="" style="endArrow=diamondThin;endFill=0;endSize=24;html=1;rounded=0;entryX=0.5;entryY=1;entryDx=0;entryDy=0;" edge="1" parent="WIyWlLk6GJQsqaUBKTNV-1" target="M98M4lL8PVVXPSp0lgDI-57">
          <mxGeometry width="160" relative="1" as="geometry">
            <mxPoint x="2670" y="454" as="sourcePoint" />
            <mxPoint x="2470" y="494" as="targetPoint" />
          </mxGeometry>
        </mxCell>
        <mxCell id="M98M4lL8PVVXPSp0lgDI-59" value="ItemUnitDis1 : Item Unit Discount" style="swimlane;fontStyle=0;childLayout=stackLayout;horizontal=1;startSize=26;fillColor=none;horizontalStack=0;resizeParent=1;resizeParentMax=0;resizeLast=0;collapsible=1;marginBottom=0;whiteSpace=wrap;html=1;" vertex="1" parent="WIyWlLk6GJQsqaUBKTNV-1">
          <mxGeometry x="2760" y="454" width="130" height="78" as="geometry" />
        </mxCell>
        <mxCell id="M98M4lL8PVVXPSp0lgDI-60" value="- Size = 50" style="text;strokeColor=none;fillColor=none;align=left;verticalAlign=top;spacingLeft=4;spacingRight=4;overflow=hidden;rotatable=0;points=[[0,0.5],[1,0.5]];portConstraint=eastwest;whiteSpace=wrap;html=1;" vertex="1" parent="M98M4lL8PVVXPSp0lgDI-59">
          <mxGeometry y="26" width="130" height="26" as="geometry" />
        </mxCell>
        <mxCell id="M98M4lL8PVVXPSp0lgDI-61" value="- Number of units = 1" style="text;strokeColor=none;fillColor=none;align=left;verticalAlign=top;spacingLeft=4;spacingRight=4;overflow=hidden;rotatable=0;points=[[0,0.5],[1,0.5]];portConstraint=eastwest;whiteSpace=wrap;html=1;" vertex="1" parent="M98M4lL8PVVXPSp0lgDI-59">
          <mxGeometry y="52" width="130" height="26" as="geometry" />
        </mxCell>
        <mxCell id="M98M4lL8PVVXPSp0lgDI-62" value="OrderCostDis1: Order cost discount" style="swimlane;fontStyle=0;childLayout=stackLayout;horizontal=1;startSize=26;fillColor=none;horizontalStack=0;resizeParent=1;resizeParentMax=0;resizeLast=0;collapsible=1;marginBottom=0;whiteSpace=wrap;html=1;" vertex="1" parent="WIyWlLk6GJQsqaUBKTNV-1">
          <mxGeometry x="2910" y="455" width="140" height="78" as="geometry" />
        </mxCell>
        <mxCell id="M98M4lL8PVVXPSp0lgDI-63" value="- Size = 10" style="text;strokeColor=none;fillColor=none;align=left;verticalAlign=top;spacingLeft=4;spacingRight=4;overflow=hidden;rotatable=0;points=[[0,0.5],[1,0.5]];portConstraint=eastwest;whiteSpace=wrap;html=1;" vertex="1" parent="M98M4lL8PVVXPSp0lgDI-62">
          <mxGeometry y="26" width="140" height="26" as="geometry" />
        </mxCell>
        <mxCell id="M98M4lL8PVVXPSp0lgDI-64" value="- Cost = 50.5" style="text;strokeColor=none;fillColor=none;align=left;verticalAlign=top;spacingLeft=4;spacingRight=4;overflow=hidden;rotatable=0;points=[[0,0.5],[1,0.5]];portConstraint=eastwest;whiteSpace=wrap;html=1;" vertex="1" parent="M98M4lL8PVVXPSp0lgDI-62">
          <mxGeometry y="52" width="140" height="26" as="geometry" />
        </mxCell>
        <mxCell id="M98M4lL8PVVXPSp0lgDI-69" value="" style="endArrow=none;html=1;rounded=0;" edge="1" parent="WIyWlLk6GJQsqaUBKTNV-1">
          <mxGeometry width="50" height="50" relative="1" as="geometry">
            <mxPoint x="2980" y="455" as="sourcePoint" />
            <mxPoint x="2980" y="374" as="targetPoint" />
          </mxGeometry>
        </mxCell>
        <mxCell id="M98M4lL8PVVXPSp0lgDI-70" value="" style="endArrow=none;html=1;rounded=0;" edge="1" parent="WIyWlLk6GJQsqaUBKTNV-1">
          <mxGeometry width="50" height="50" relative="1" as="geometry">
            <mxPoint x="2824.4700000000003" y="455" as="sourcePoint" />
            <mxPoint x="2824.4700000000003" y="374" as="targetPoint" />
          </mxGeometry>
        </mxCell>
        <mxCell id="M98M4lL8PVVXPSp0lgDI-71" value="" style="endArrow=open;endFill=1;endSize=12;html=1;rounded=0;entryX=0;entryY=0.75;entryDx=0;entryDy=0;exitX=1;exitY=0.5;exitDx=0;exitDy=0;" edge="1" parent="WIyWlLk6GJQsqaUBKTNV-1" source="M98M4lL8PVVXPSp0lgDI-26">
          <mxGeometry width="160" relative="1" as="geometry">
            <mxPoint x="2130" y="267" as="sourcePoint" />
            <mxPoint x="2230" y="353.74" as="targetPoint" />
          </mxGeometry>
        </mxCell>
        <mxCell id="M98M4lL8PVVXPSp0lgDI-72" value="" style="endArrow=open;endFill=1;endSize=12;html=1;rounded=0;entryX=0.5;entryY=0;entryDx=0;entryDy=0;exitX=0.5;exitY=1;exitDx=0;exitDy=0;" edge="1" parent="WIyWlLk6GJQsqaUBKTNV-1" source="M98M4lL8PVVXPSp0lgDI-48" target="M98M4lL8PVVXPSp0lgDI-49">
          <mxGeometry width="160" relative="1" as="geometry">
            <mxPoint x="2060" y="552" as="sourcePoint" />
            <mxPoint x="2220" y="552" as="targetPoint" />
          </mxGeometry>
        </mxCell>
        <mxCell id="M98M4lL8PVVXPSp0lgDI-73" value="" style="endArrow=open;endFill=1;endSize=12;html=1;rounded=0;entryX=1;entryY=0.5;entryDx=0;entryDy=0;exitX=1;exitY=0.5;exitDx=0;exitDy=0;" edge="1" parent="WIyWlLk6GJQsqaUBKTNV-1" source="M98M4lL8PVVXPSp0lgDI-48" target="M98M4lL8PVVXPSp0lgDI-50">
          <mxGeometry width="160" relative="1" as="geometry">
            <mxPoint x="2299.63" y="562" as="sourcePoint" />
            <mxPoint x="2299.63" y="602" as="targetPoint" />
            <Array as="points">
              <mxPoint x="2430" y="462" />
              <mxPoint x="2430" y="632" />
            </Array>
          </mxGeometry>
        </mxCell>
        <mxCell id="M98M4lL8PVVXPSp0lgDI-74" value="supMap: SupplierDataMapper" style="swimlane;fontStyle=0;childLayout=stackLayout;horizontal=1;startSize=26;fillColor=none;horizontalStack=0;resizeParent=1;resizeParentMax=0;resizeLast=0;collapsible=1;marginBottom=0;whiteSpace=wrap;html=1;" vertex="1" parent="WIyWlLk6GJQsqaUBKTNV-1">
          <mxGeometry x="2600" y="579" width="140" height="40" as="geometry" />
        </mxCell>
        <mxCell id="M98M4lL8PVVXPSp0lgDI-75" value="Supp1: Supplier Delivers ERegular&amp;nbsp;" style="swimlane;fontStyle=0;childLayout=stackLayout;horizontal=1;startSize=30;fillColor=none;horizontalStack=0;resizeParent=1;resizeParentMax=0;resizeLast=0;collapsible=1;marginBottom=0;whiteSpace=wrap;html=1;" vertex="1" parent="WIyWlLk6GJQsqaUBKTNV-1">
          <mxGeometry x="2600" y="696" width="230" height="108" as="geometry" />
        </mxCell>
        <mxCell id="M98M4lL8PVVXPSp0lgDI-76" value="- Catagories = [Diary products, Soaps]" style="text;strokeColor=none;fillColor=none;align=left;verticalAlign=top;spacingLeft=4;spacingRight=4;overflow=hidden;rotatable=0;points=[[0,0.5],[1,0.5]];portConstraint=eastwest;whiteSpace=wrap;html=1;" vertex="1" parent="M98M4lL8PVVXPSp0lgDI-75">
          <mxGeometry y="30" width="230" height="26" as="geometry" />
        </mxCell>
        <mxCell id="M98M4lL8PVVXPSp0lgDI-77" value="- Manufacturers = [Tnuva, Lalin]" style="text;strokeColor=none;fillColor=none;align=left;verticalAlign=top;spacingLeft=4;spacingRight=4;overflow=hidden;rotatable=0;points=[[0,0.5],[1,0.5]];portConstraint=eastwest;whiteSpace=wrap;html=1;" vertex="1" parent="M98M4lL8PVVXPSp0lgDI-75">
          <mxGeometry y="56" width="230" height="26" as="geometry" />
        </mxCell>
        <mxCell id="M98M4lL8PVVXPSp0lgDI-78" value="- Days to deliver = 2" style="text;strokeColor=none;fillColor=none;align=left;verticalAlign=top;spacingLeft=4;spacingRight=4;overflow=hidden;rotatable=0;points=[[0,0.5],[1,0.5]];portConstraint=eastwest;whiteSpace=wrap;html=1;" vertex="1" parent="M98M4lL8PVVXPSp0lgDI-75">
          <mxGeometry y="82" width="230" height="26" as="geometry" />
        </mxCell>
        <mxCell id="M98M4lL8PVVXPSp0lgDI-82" value="" style="endArrow=diamondThin;endFill=0;endSize=24;html=1;rounded=0;entryX=0.5;entryY=1;entryDx=0;entryDy=0;" edge="1" parent="WIyWlLk6GJQsqaUBKTNV-1">
          <mxGeometry width="160" relative="1" as="geometry">
            <mxPoint x="2669" y="694" as="sourcePoint" />
            <mxPoint x="2669.4700000000003" y="619" as="targetPoint" />
          </mxGeometry>
        </mxCell>
        <mxCell id="M98M4lL8PVVXPSp0lgDI-86" style="edgeStyle=orthogonalEdgeStyle;rounded=0;orthogonalLoop=1;jettySize=auto;html=1;entryX=0;entryY=0.5;entryDx=0;entryDy=0;" edge="1" parent="WIyWlLk6GJQsqaUBKTNV-1" source="M98M4lL8PVVXPSp0lgDI-92" target="M98M4lL8PVVXPSp0lgDI-102">
          <mxGeometry relative="1" as="geometry">
            <Array as="points">
              <mxPoint x="3732" y="363.71" />
              <mxPoint x="3902" y="363.71" />
            </Array>
          </mxGeometry>
        </mxCell>
        <mxCell id="M98M4lL8PVVXPSp0lgDI-87" style="edgeStyle=orthogonalEdgeStyle;rounded=0;orthogonalLoop=1;jettySize=auto;html=1;" edge="1" parent="WIyWlLk6GJQsqaUBKTNV-1" source="M98M4lL8PVVXPSp0lgDI-92" target="M98M4lL8PVVXPSp0lgDI-99">
          <mxGeometry relative="1" as="geometry">
            <mxPoint x="3522" y="423.71" as="targetPoint" />
          </mxGeometry>
        </mxCell>
        <mxCell id="M98M4lL8PVVXPSp0lgDI-88" style="edgeStyle=orthogonalEdgeStyle;rounded=0;orthogonalLoop=1;jettySize=auto;html=1;" edge="1" parent="WIyWlLk6GJQsqaUBKTNV-1" source="M98M4lL8PVVXPSp0lgDI-92" target="M98M4lL8PVVXPSp0lgDI-108">
          <mxGeometry relative="1" as="geometry" />
        </mxCell>
        <mxCell id="M98M4lL8PVVXPSp0lgDI-89" style="edgeStyle=orthogonalEdgeStyle;rounded=0;orthogonalLoop=1;jettySize=auto;html=1;entryX=0.25;entryY=0;entryDx=0;entryDy=0;" edge="1" parent="WIyWlLk6GJQsqaUBKTNV-1" source="M98M4lL8PVVXPSp0lgDI-92" target="M98M4lL8PVVXPSp0lgDI-111">
          <mxGeometry relative="1" as="geometry">
            <Array as="points">
              <mxPoint x="3605" y="511.71" />
            </Array>
          </mxGeometry>
        </mxCell>
        <mxCell id="M98M4lL8PVVXPSp0lgDI-90" style="edgeStyle=orthogonalEdgeStyle;rounded=0;orthogonalLoop=1;jettySize=auto;html=1;entryX=0.401;entryY=-0.037;entryDx=0;entryDy=0;entryPerimeter=0;" edge="1" parent="WIyWlLk6GJQsqaUBKTNV-1" source="M98M4lL8PVVXPSp0lgDI-92" target="M98M4lL8PVVXPSp0lgDI-114">
          <mxGeometry relative="1" as="geometry">
            <Array as="points">
              <mxPoint x="3778" y="553.71" />
              <mxPoint x="3778" y="553.71" />
            </Array>
          </mxGeometry>
        </mxCell>
        <mxCell id="M98M4lL8PVVXPSp0lgDI-92" value="suppController: SupplierController" style="swimlane;fontStyle=0;childLayout=stackLayout;horizontal=1;startSize=26;fillColor=none;horizontalStack=0;resizeParent=1;resizeParentMax=0;resizeLast=0;collapsible=1;marginBottom=0;whiteSpace=wrap;html=1;" vertex="1" parent="WIyWlLk6GJQsqaUBKTNV-1">
          <mxGeometry x="3662" y="491.71" width="140" height="40" as="geometry" />
        </mxCell>
        <mxCell id="M98M4lL8PVVXPSp0lgDI-96" value="Supp1: Supplier Delivers ERegular&amp;nbsp;" style="swimlane;fontStyle=0;childLayout=stackLayout;horizontal=1;startSize=30;fillColor=none;horizontalStack=0;resizeParent=1;resizeParentMax=0;resizeLast=0;collapsible=1;marginBottom=0;whiteSpace=wrap;html=1;" vertex="1" parent="WIyWlLk6GJQsqaUBKTNV-1">
          <mxGeometry x="3342" y="303.71" width="230" height="108" as="geometry" />
        </mxCell>
        <mxCell id="M98M4lL8PVVXPSp0lgDI-97" value="- Catagories = [Diary products, Soaps]" style="text;strokeColor=none;fillColor=none;align=left;verticalAlign=top;spacingLeft=4;spacingRight=4;overflow=hidden;rotatable=0;points=[[0,0.5],[1,0.5]];portConstraint=eastwest;whiteSpace=wrap;html=1;" vertex="1" parent="M98M4lL8PVVXPSp0lgDI-96">
          <mxGeometry y="30" width="230" height="26" as="geometry" />
        </mxCell>
        <mxCell id="M98M4lL8PVVXPSp0lgDI-98" value="- Manufacturers = [Tnuva, Lalin]" style="text;strokeColor=none;fillColor=none;align=left;verticalAlign=top;spacingLeft=4;spacingRight=4;overflow=hidden;rotatable=0;points=[[0,0.5],[1,0.5]];portConstraint=eastwest;whiteSpace=wrap;html=1;" vertex="1" parent="M98M4lL8PVVXPSp0lgDI-96">
          <mxGeometry y="56" width="230" height="26" as="geometry" />
        </mxCell>
        <mxCell id="M98M4lL8PVVXPSp0lgDI-99" value="- Days to deliver = 2" style="text;strokeColor=none;fillColor=none;align=left;verticalAlign=top;spacingLeft=4;spacingRight=4;overflow=hidden;rotatable=0;points=[[0,0.5],[1,0.5]];portConstraint=eastwest;whiteSpace=wrap;html=1;" vertex="1" parent="M98M4lL8PVVXPSp0lgDI-96">
          <mxGeometry y="82" width="230" height="26" as="geometry" />
        </mxCell>
        <mxCell id="M98M4lL8PVVXPSp0lgDI-100" value="C1: Contact" style="swimlane;fontStyle=0;childLayout=stackLayout;horizontal=1;startSize=26;fillColor=none;horizontalStack=0;resizeParent=1;resizeParentMax=0;resizeLast=0;collapsible=1;marginBottom=0;whiteSpace=wrap;html=1;" vertex="1" parent="WIyWlLk6GJQsqaUBKTNV-1">
          <mxGeometry x="3902" y="303.71" width="190" height="100" as="geometry" />
        </mxCell>
        <mxCell id="M98M4lL8PVVXPSp0lgDI-101" value="- Name = Gali" style="text;strokeColor=none;fillColor=none;align=left;verticalAlign=top;spacingLeft=4;spacingRight=4;overflow=hidden;rotatable=0;points=[[0,0.5],[1,0.5]];portConstraint=eastwest;whiteSpace=wrap;html=1;" vertex="1" parent="M98M4lL8PVVXPSp0lgDI-100">
          <mxGeometry y="26" width="190" height="22" as="geometry" />
        </mxCell>
        <mxCell id="M98M4lL8PVVXPSp0lgDI-102" value="- Phone number = 054-4563452" style="text;strokeColor=none;fillColor=none;align=left;verticalAlign=top;spacingLeft=4;spacingRight=4;overflow=hidden;rotatable=0;points=[[0,0.5],[1,0.5]];portConstraint=eastwest;whiteSpace=wrap;html=1;" vertex="1" parent="M98M4lL8PVVXPSp0lgDI-100">
          <mxGeometry y="48" width="190" height="26" as="geometry" />
        </mxCell>
        <mxCell id="M98M4lL8PVVXPSp0lgDI-103" value="- Email = gali@gmail.com" style="text;strokeColor=none;fillColor=none;align=left;verticalAlign=top;spacingLeft=4;spacingRight=4;overflow=hidden;rotatable=0;points=[[0,0.5],[1,0.5]];portConstraint=eastwest;whiteSpace=wrap;html=1;" vertex="1" parent="M98M4lL8PVVXPSp0lgDI-100">
          <mxGeometry y="74" width="190" height="26" as="geometry" />
        </mxCell>
        <mxCell id="M98M4lL8PVVXPSp0lgDI-108" value="OrderUnitsDis1: Order units discount" style="swimlane;fontStyle=0;childLayout=stackLayout;horizontal=1;startSize=26;fillColor=none;horizontalStack=0;resizeParent=1;resizeParentMax=0;resizeLast=0;collapsible=1;marginBottom=0;whiteSpace=wrap;html=1;" vertex="1" parent="WIyWlLk6GJQsqaUBKTNV-1">
          <mxGeometry x="3412" y="614.71" width="140" height="78" as="geometry" />
        </mxCell>
        <mxCell id="M98M4lL8PVVXPSp0lgDI-109" value="- Size = 10" style="text;strokeColor=none;fillColor=none;align=left;verticalAlign=top;spacingLeft=4;spacingRight=4;overflow=hidden;rotatable=0;points=[[0,0.5],[1,0.5]];portConstraint=eastwest;whiteSpace=wrap;html=1;" vertex="1" parent="M98M4lL8PVVXPSp0lgDI-108">
          <mxGeometry y="26" width="140" height="26" as="geometry" />
        </mxCell>
        <mxCell id="M98M4lL8PVVXPSp0lgDI-110" value="- Number of units = 100" style="text;strokeColor=none;fillColor=none;align=left;verticalAlign=top;spacingLeft=4;spacingRight=4;overflow=hidden;rotatable=0;points=[[0,0.5],[1,0.5]];portConstraint=eastwest;whiteSpace=wrap;html=1;" vertex="1" parent="M98M4lL8PVVXPSp0lgDI-108">
          <mxGeometry y="52" width="140" height="26" as="geometry" />
        </mxCell>
        <mxCell id="M98M4lL8PVVXPSp0lgDI-111" value="ItemUnitDis1 : Item Unit Discount" style="swimlane;fontStyle=0;childLayout=stackLayout;horizontal=1;startSize=26;fillColor=none;horizontalStack=0;resizeParent=1;resizeParentMax=0;resizeLast=0;collapsible=1;marginBottom=0;whiteSpace=wrap;html=1;" vertex="1" parent="WIyWlLk6GJQsqaUBKTNV-1">
          <mxGeometry x="3572" y="613.71" width="130" height="78" as="geometry" />
        </mxCell>
        <mxCell id="M98M4lL8PVVXPSp0lgDI-112" value="- Size = 50" style="text;strokeColor=none;fillColor=none;align=left;verticalAlign=top;spacingLeft=4;spacingRight=4;overflow=hidden;rotatable=0;points=[[0,0.5],[1,0.5]];portConstraint=eastwest;whiteSpace=wrap;html=1;" vertex="1" parent="M98M4lL8PVVXPSp0lgDI-111">
          <mxGeometry y="26" width="130" height="26" as="geometry" />
        </mxCell>
        <mxCell id="M98M4lL8PVVXPSp0lgDI-113" value="- Number of units = 1" style="text;strokeColor=none;fillColor=none;align=left;verticalAlign=top;spacingLeft=4;spacingRight=4;overflow=hidden;rotatable=0;points=[[0,0.5],[1,0.5]];portConstraint=eastwest;whiteSpace=wrap;html=1;" vertex="1" parent="M98M4lL8PVVXPSp0lgDI-111">
          <mxGeometry y="52" width="130" height="26" as="geometry" />
        </mxCell>
        <mxCell id="M98M4lL8PVVXPSp0lgDI-114" value="OrderCostDis1: Order cost discount" style="swimlane;fontStyle=0;childLayout=stackLayout;horizontal=1;startSize=26;fillColor=none;horizontalStack=0;resizeParent=1;resizeParentMax=0;resizeLast=0;collapsible=1;marginBottom=0;whiteSpace=wrap;html=1;" vertex="1" parent="WIyWlLk6GJQsqaUBKTNV-1">
          <mxGeometry x="3722" y="614.71" width="140" height="78" as="geometry" />
        </mxCell>
        <mxCell id="M98M4lL8PVVXPSp0lgDI-115" value="- Size = 10" style="text;strokeColor=none;fillColor=none;align=left;verticalAlign=top;spacingLeft=4;spacingRight=4;overflow=hidden;rotatable=0;points=[[0,0.5],[1,0.5]];portConstraint=eastwest;whiteSpace=wrap;html=1;" vertex="1" parent="M98M4lL8PVVXPSp0lgDI-114">
          <mxGeometry y="26" width="140" height="26" as="geometry" />
        </mxCell>
        <mxCell id="M98M4lL8PVVXPSp0lgDI-116" value="- Cost = 50.5" style="text;strokeColor=none;fillColor=none;align=left;verticalAlign=top;spacingLeft=4;spacingRight=4;overflow=hidden;rotatable=0;points=[[0,0.5],[1,0.5]];portConstraint=eastwest;whiteSpace=wrap;html=1;" vertex="1" parent="M98M4lL8PVVXPSp0lgDI-114">
          <mxGeometry y="52" width="140" height="26" as="geometry" />
        </mxCell>
        <mxCell id="M98M4lL8PVVXPSp0lgDI-121" style="edgeStyle=orthogonalEdgeStyle;rounded=0;orthogonalLoop=1;jettySize=auto;html=1;entryX=0.534;entryY=0.994;entryDx=0;entryDy=0;entryPerimeter=0;" edge="1" parent="WIyWlLk6GJQsqaUBKTNV-1" source="M98M4lL8PVVXPSp0lgDI-124" target="M98M4lL8PVVXPSp0lgDI-116">
          <mxGeometry relative="1" as="geometry" />
        </mxCell>
        <mxCell id="M98M4lL8PVVXPSp0lgDI-122" style="edgeStyle=orthogonalEdgeStyle;rounded=0;orthogonalLoop=1;jettySize=auto;html=1;entryX=0.711;entryY=1.033;entryDx=0;entryDy=0;entryPerimeter=0;" edge="1" parent="WIyWlLk6GJQsqaUBKTNV-1" source="M98M4lL8PVVXPSp0lgDI-124" target="M98M4lL8PVVXPSp0lgDI-113">
          <mxGeometry relative="1" as="geometry" />
        </mxCell>
        <mxCell id="M98M4lL8PVVXPSp0lgDI-123" style="edgeStyle=orthogonalEdgeStyle;rounded=0;orthogonalLoop=1;jettySize=auto;html=1;exitX=0.5;exitY=0;exitDx=0;exitDy=0;" edge="1" parent="WIyWlLk6GJQsqaUBKTNV-1" source="M98M4lL8PVVXPSp0lgDI-124">
          <mxGeometry relative="1" as="geometry">
            <mxPoint x="3462" y="690.71" as="targetPoint" />
            <Array as="points">
              <mxPoint x="3462" y="811.71" />
              <mxPoint x="3462" y="690.71" />
            </Array>
          </mxGeometry>
        </mxCell>
        <mxCell id="M98M4lL8PVVXPSp0lgDI-124" value="orderManag: OrderManagment" style="swimlane;fontStyle=0;childLayout=stackLayout;horizontal=1;startSize=26;fillColor=none;horizontalStack=0;resizeParent=1;resizeParentMax=0;resizeLast=0;collapsible=1;marginBottom=0;whiteSpace=wrap;html=1;" vertex="1" parent="WIyWlLk6GJQsqaUBKTNV-1">
          <mxGeometry x="3652" y="811.71" width="110" height="40" as="geometry" />
        </mxCell>
        <mxCell id="M98M4lL8PVVXPSp0lgDI-125" value="&lt;span style=&quot;font-weight: normal; font-size: 12px;&quot;&gt;&lt;font style=&quot;font-size: 12px;&quot;&gt;Using&lt;/font&gt;&lt;/span&gt;" style="edgeLabel;html=1;align=center;verticalAlign=middle;resizable=0;points=[];fontStyle=1;fontSize=12;" connectable="0" vertex="1" parent="WIyWlLk6GJQsqaUBKTNV-1">
          <mxGeometry x="1950" y="325.7142857142858" as="geometry">
            <mxPoint x="-1087" y="-205" as="offset" />
          </mxGeometry>
        </mxCell>
        <mxCell id="M98M4lL8PVVXPSp0lgDI-126" value="" style="endArrow=none;html=1;rounded=0;" edge="1" parent="WIyWlLk6GJQsqaUBKTNV-1">
          <mxGeometry width="50" height="50" relative="1" as="geometry">
            <mxPoint x="2670" y="373" as="sourcePoint" />
            <mxPoint x="2980" y="373" as="targetPoint" />
          </mxGeometry>
        </mxCell>
        <mxCell id="M98M4lL8PVVXPSp0lgDI-128" value="&lt;span style=&quot;font-weight: normal; font-size: 12px;&quot;&gt;&lt;font style=&quot;font-size: 12px;&quot;&gt;Has&lt;/font&gt;&lt;/span&gt;" style="edgeLabel;html=1;align=center;verticalAlign=middle;resizable=0;points=[];fontStyle=1;fontSize=12;" connectable="0" vertex="1" parent="WIyWlLk6GJQsqaUBKTNV-1">
          <mxGeometry x="1940" y="447.0042857142858" as="geometry">
            <mxPoint x="-829" y="-361" as="offset" />
          </mxGeometry>
        </mxCell>
        <mxCell id="M98M4lL8PVVXPSp0lgDI-129" value="&lt;span style=&quot;font-weight: normal; font-size: 12px;&quot;&gt;&lt;font style=&quot;font-size: 12px;&quot;&gt;Contains&lt;/font&gt;&lt;/span&gt;" style="edgeLabel;html=1;align=center;verticalAlign=middle;resizable=0;points=[];fontStyle=1;fontSize=12;" connectable="0" vertex="1" parent="WIyWlLk6GJQsqaUBKTNV-1">
          <mxGeometry x="1930" y="407.0042857142858" as="geometry">
            <mxPoint x="-571" y="-325" as="offset" />
          </mxGeometry>
        </mxCell>
        <mxCell id="M98M4lL8PVVXPSp0lgDI-131" value="&lt;span style=&quot;font-weight: normal; font-size: 12px;&quot;&gt;&lt;font style=&quot;font-size: 12px;&quot;&gt;Contains&lt;/font&gt;&lt;/span&gt;" style="edgeLabel;html=1;align=center;verticalAlign=middle;resizable=0;points=[];fontStyle=1;fontSize=12;" connectable="0" vertex="1" parent="WIyWlLk6GJQsqaUBKTNV-1">
          <mxGeometry x="1950" y="400.0042857142858" as="geometry">
            <mxPoint x="-627" y="-60" as="offset" />
          </mxGeometry>
        </mxCell>
        <mxCell id="M98M4lL8PVVXPSp0lgDI-132" value="&lt;span style=&quot;font-weight: normal; font-size: 12px;&quot;&gt;&lt;font style=&quot;font-size: 12px;&quot;&gt;Controlls&lt;/font&gt;&lt;/span&gt;" style="edgeLabel;html=1;align=center;verticalAlign=middle;resizable=0;points=[];fontStyle=1;fontSize=12;" connectable="0" vertex="1" parent="WIyWlLk6GJQsqaUBKTNV-1">
          <mxGeometry x="920" y="385.0042857142858" as="geometry">
            <mxPoint x="-1" y="8" as="offset" />
          </mxGeometry>
        </mxCell>
        <mxCell id="M98M4lL8PVVXPSp0lgDI-133" value="&lt;span style=&quot;font-weight: normal; font-size: 12px;&quot;&gt;&lt;font style=&quot;font-size: 12px;&quot;&gt;Contains&lt;/font&gt;&lt;/span&gt;" style="edgeLabel;html=1;align=center;verticalAlign=middle;resizable=0;points=[];fontStyle=1;fontSize=12;" connectable="0" vertex="1" parent="WIyWlLk6GJQsqaUBKTNV-1">
          <mxGeometry x="1960" y="385.0042857142858" as="geometry">
            <mxPoint x="-910" y="13" as="offset" />
          </mxGeometry>
        </mxCell>
        <mxCell id="M98M4lL8PVVXPSp0lgDI-134" value="&lt;span style=&quot;font-weight: normal; font-size: 12px;&quot;&gt;&lt;font style=&quot;font-size: 12px;&quot;&gt;Has&lt;/font&gt;&lt;/span&gt;" style="edgeLabel;html=1;align=center;verticalAlign=middle;resizable=0;points=[];fontStyle=1;fontSize=12;" connectable="0" vertex="1" parent="WIyWlLk6GJQsqaUBKTNV-1">
          <mxGeometry x="1220" y="260.0042857142858" as="geometry">
            <mxPoint y="5" as="offset" />
          </mxGeometry>
        </mxCell>
        <mxCell id="M98M4lL8PVVXPSp0lgDI-135" value="&lt;span style=&quot;font-weight: normal; font-size: 12px;&quot;&gt;&lt;font style=&quot;font-size: 12px;&quot;&gt;Has&lt;/font&gt;&lt;/span&gt;" style="edgeLabel;html=1;align=center;verticalAlign=middle;resizable=0;points=[];fontStyle=1;fontSize=12;" connectable="0" vertex="1" parent="WIyWlLk6GJQsqaUBKTNV-1">
          <mxGeometry x="1120.0382446666613" y="880.0000046879952" as="geometry" />
        </mxCell>
        <mxCell id="M98M4lL8PVVXPSp0lgDI-136" value="&lt;span style=&quot;font-weight: normal; font-size: 12px;&quot;&gt;&lt;font style=&quot;font-size: 12px;&quot;&gt;Has&lt;/font&gt;&lt;/span&gt;" style="edgeLabel;html=1;align=center;verticalAlign=middle;resizable=0;points=[];fontStyle=1;fontSize=12;" connectable="0" vertex="1" parent="WIyWlLk6GJQsqaUBKTNV-1">
          <mxGeometry x="1290.0382446666613" y="880.0000046879952" as="geometry" />
        </mxCell>
        <mxCell id="M98M4lL8PVVXPSp0lgDI-137" value="&lt;span style=&quot;font-weight: normal; font-size: 12px;&quot;&gt;&lt;font style=&quot;font-size: 12px;&quot;&gt;Has&lt;/font&gt;&lt;/span&gt;" style="edgeLabel;html=1;align=center;verticalAlign=middle;resizable=0;points=[];fontStyle=1;fontSize=12;" connectable="0" vertex="1" parent="WIyWlLk6GJQsqaUBKTNV-1">
          <mxGeometry x="1470.0382446666613" y="880.0000046879952" as="geometry" />
        </mxCell>
        <mxCell id="M98M4lL8PVVXPSp0lgDI-138" value="&lt;span style=&quot;font-weight: normal; font-size: 12px;&quot;&gt;&lt;font style=&quot;font-size: 12px;&quot;&gt;Contains&lt;/font&gt;&lt;/span&gt;" style="edgeLabel;html=1;align=center;verticalAlign=middle;resizable=0;points=[];fontStyle=1;fontSize=12;" connectable="0" vertex="1" parent="WIyWlLk6GJQsqaUBKTNV-1">
          <mxGeometry x="1260.0382446666613" y="750.0000046879952" as="geometry" />
        </mxCell>
        <mxCell id="M98M4lL8PVVXPSp0lgDI-139" value="&lt;span style=&quot;font-weight: normal; font-size: 12px;&quot;&gt;&lt;font style=&quot;font-size: 12px;&quot;&gt;Contains&lt;/font&gt;&lt;/span&gt;" style="edgeLabel;html=1;align=center;verticalAlign=middle;resizable=0;points=[];fontStyle=1;fontSize=12;" connectable="0" vertex="1" parent="WIyWlLk6GJQsqaUBKTNV-1">
          <mxGeometry x="1430.0382446666613" y="750.0000046879952" as="geometry" />
        </mxCell>
        <mxCell id="M98M4lL8PVVXPSp0lgDI-140" value="DisDoc1: Discount document" style="swimlane;fontStyle=0;childLayout=stackLayout;horizontal=1;startSize=26;fillColor=none;horizontalStack=0;resizeParent=1;resizeParentMax=0;resizeLast=0;collapsible=1;marginBottom=0;whiteSpace=wrap;html=1;" vertex="1" parent="WIyWlLk6GJQsqaUBKTNV-1">
          <mxGeometry x="1199" y="670" width="200" height="30" as="geometry">
            <mxRectangle x="520" y="160" width="130" height="30" as="alternateBounds" />
          </mxGeometry>
        </mxCell>
        <mxCell id="M98M4lL8PVVXPSp0lgDI-141" value="PercentageDis1: Percentage Discount" style="swimlane;fontStyle=0;childLayout=stackLayout;horizontal=1;startSize=30;fillColor=none;horizontalStack=0;resizeParent=1;resizeParentMax=0;resizeLast=0;collapsible=1;marginBottom=0;whiteSpace=wrap;html=1;" vertex="1" parent="WIyWlLk6GJQsqaUBKTNV-1">
          <mxGeometry x="1200" y="910" width="140" height="40" as="geometry" />
        </mxCell>
        <mxCell id="M98M4lL8PVVXPSp0lgDI-142" value="ItemUnitDis1 : Item Unit Discount" style="swimlane;fontStyle=0;childLayout=stackLayout;horizontal=1;startSize=26;fillColor=none;horizontalStack=0;resizeParent=1;resizeParentMax=0;resizeLast=0;collapsible=1;marginBottom=0;whiteSpace=wrap;html=1;" vertex="1" parent="WIyWlLk6GJQsqaUBKTNV-1">
          <mxGeometry x="1200" y="770" width="130" height="78" as="geometry" />
        </mxCell>
        <mxCell id="M98M4lL8PVVXPSp0lgDI-143" value="- Size = 50" style="text;strokeColor=none;fillColor=none;align=left;verticalAlign=top;spacingLeft=4;spacingRight=4;overflow=hidden;rotatable=0;points=[[0,0.5],[1,0.5]];portConstraint=eastwest;whiteSpace=wrap;html=1;" vertex="1" parent="M98M4lL8PVVXPSp0lgDI-142">
          <mxGeometry y="26" width="130" height="26" as="geometry" />
        </mxCell>
        <mxCell id="M98M4lL8PVVXPSp0lgDI-144" value="- Number of units = 1" style="text;strokeColor=none;fillColor=none;align=left;verticalAlign=top;spacingLeft=4;spacingRight=4;overflow=hidden;rotatable=0;points=[[0,0.5],[1,0.5]];portConstraint=eastwest;whiteSpace=wrap;html=1;" vertex="1" parent="M98M4lL8PVVXPSp0lgDI-142">
          <mxGeometry y="52" width="130" height="26" as="geometry" />
        </mxCell>
        <mxCell id="M98M4lL8PVVXPSp0lgDI-145" value="OrderUnitsDis1: Order units discount" style="swimlane;fontStyle=0;childLayout=stackLayout;horizontal=1;startSize=26;fillColor=none;horizontalStack=0;resizeParent=1;resizeParentMax=0;resizeLast=0;collapsible=1;marginBottom=0;whiteSpace=wrap;html=1;" vertex="1" parent="WIyWlLk6GJQsqaUBKTNV-1">
          <mxGeometry x="1010" y="770" width="140" height="78" as="geometry" />
        </mxCell>
        <mxCell id="M98M4lL8PVVXPSp0lgDI-146" value="- Size = 10" style="text;strokeColor=none;fillColor=none;align=left;verticalAlign=top;spacingLeft=4;spacingRight=4;overflow=hidden;rotatable=0;points=[[0,0.5],[1,0.5]];portConstraint=eastwest;whiteSpace=wrap;html=1;" vertex="1" parent="M98M4lL8PVVXPSp0lgDI-145">
          <mxGeometry y="26" width="140" height="26" as="geometry" />
        </mxCell>
        <mxCell id="M98M4lL8PVVXPSp0lgDI-147" value="- Number of units = 100" style="text;strokeColor=none;fillColor=none;align=left;verticalAlign=top;spacingLeft=4;spacingRight=4;overflow=hidden;rotatable=0;points=[[0,0.5],[1,0.5]];portConstraint=eastwest;whiteSpace=wrap;html=1;" vertex="1" parent="M98M4lL8PVVXPSp0lgDI-145">
          <mxGeometry y="52" width="140" height="26" as="geometry" />
        </mxCell>
        <mxCell id="M98M4lL8PVVXPSp0lgDI-148" value="PercentageDis2: Percentage Discount" style="swimlane;fontStyle=0;childLayout=stackLayout;horizontal=1;startSize=30;fillColor=none;horizontalStack=0;resizeParent=1;resizeParentMax=0;resizeLast=0;collapsible=1;marginBottom=0;whiteSpace=wrap;html=1;" vertex="1" parent="WIyWlLk6GJQsqaUBKTNV-1">
          <mxGeometry x="1010" y="910" width="140" height="40" as="geometry" />
        </mxCell>
        <mxCell id="M98M4lL8PVVXPSp0lgDI-149" value="OrderCostDis1: Order cost discount" style="swimlane;fontStyle=0;childLayout=stackLayout;horizontal=1;startSize=26;fillColor=none;horizontalStack=0;resizeParent=1;resizeParentMax=0;resizeLast=0;collapsible=1;marginBottom=0;whiteSpace=wrap;html=1;" vertex="1" parent="WIyWlLk6GJQsqaUBKTNV-1">
          <mxGeometry x="1375" y="770" width="140" height="78" as="geometry" />
        </mxCell>
        <mxCell id="M98M4lL8PVVXPSp0lgDI-150" value="" style="endArrow=none;html=1;rounded=0;exitX=0.595;exitY=-0.019;exitDx=0;exitDy=0;exitPerimeter=0;" edge="1" parent="M98M4lL8PVVXPSp0lgDI-149" source="M98M4lL8PVVXPSp0lgDI-149">
          <mxGeometry width="50" height="50" relative="1" as="geometry">
            <mxPoint x="85" y="-10" as="sourcePoint" />
            <mxPoint x="85" y="-30" as="targetPoint" />
          </mxGeometry>
        </mxCell>
        <mxCell id="M98M4lL8PVVXPSp0lgDI-151" value="- Size = 10" style="text;strokeColor=none;fillColor=none;align=left;verticalAlign=top;spacingLeft=4;spacingRight=4;overflow=hidden;rotatable=0;points=[[0,0.5],[1,0.5]];portConstraint=eastwest;whiteSpace=wrap;html=1;" vertex="1" parent="M98M4lL8PVVXPSp0lgDI-149">
          <mxGeometry y="26" width="140" height="26" as="geometry" />
        </mxCell>
        <mxCell id="M98M4lL8PVVXPSp0lgDI-152" value="- Cost = 50.5" style="text;strokeColor=none;fillColor=none;align=left;verticalAlign=top;spacingLeft=4;spacingRight=4;overflow=hidden;rotatable=0;points=[[0,0.5],[1,0.5]];portConstraint=eastwest;whiteSpace=wrap;html=1;" vertex="1" parent="M98M4lL8PVVXPSp0lgDI-149">
          <mxGeometry y="52" width="140" height="26" as="geometry" />
        </mxCell>
        <mxCell id="M98M4lL8PVVXPSp0lgDI-153" value="PercentageDis2: Const Discount" style="swimlane;fontStyle=0;childLayout=stackLayout;horizontal=1;startSize=30;fillColor=none;horizontalStack=0;resizeParent=1;resizeParentMax=0;resizeLast=0;collapsible=1;marginBottom=0;whiteSpace=wrap;html=1;" vertex="1" parent="WIyWlLk6GJQsqaUBKTNV-1">
          <mxGeometry x="1375" y="910" width="140" height="40" as="geometry" />
        </mxCell>
        <mxCell id="M98M4lL8PVVXPSp0lgDI-154" value="" style="endArrow=none;html=1;rounded=0;entryX=0;entryY=0.5;entryDx=0;entryDy=0;exitX=0.5;exitY=0;exitDx=0;exitDy=0;" edge="1" parent="WIyWlLk6GJQsqaUBKTNV-1" source="M98M4lL8PVVXPSp0lgDI-148">
          <mxGeometry width="50" height="50" relative="1" as="geometry">
            <mxPoint x="950" y="902.9999999999999" as="sourcePoint" />
            <mxPoint x="1080" y="847.9999999999999" as="targetPoint" />
          </mxGeometry>
        </mxCell>
        <mxCell id="M98M4lL8PVVXPSp0lgDI-155" value="" style="endArrow=none;html=1;rounded=0;entryX=0;entryY=0.5;entryDx=0;entryDy=0;exitX=0.5;exitY=0;exitDx=0;exitDy=0;" edge="1" parent="WIyWlLk6GJQsqaUBKTNV-1">
          <mxGeometry width="50" height="50" relative="1" as="geometry">
            <mxPoint x="1264.4099999999999" y="910" as="sourcePoint" />
            <mxPoint x="1264.4099999999999" y="847.9999999999999" as="targetPoint" />
          </mxGeometry>
        </mxCell>
        <mxCell id="M98M4lL8PVVXPSp0lgDI-156" value="" style="endArrow=none;html=1;rounded=0;entryX=0;entryY=0.5;entryDx=0;entryDy=0;exitX=0.5;exitY=0;exitDx=0;exitDy=0;" edge="1" parent="WIyWlLk6GJQsqaUBKTNV-1">
          <mxGeometry width="50" height="50" relative="1" as="geometry">
            <mxPoint x="1444.4099999999999" y="910" as="sourcePoint" />
            <mxPoint x="1444.4099999999999" y="847.9999999999999" as="targetPoint" />
          </mxGeometry>
        </mxCell>
        <mxCell id="M98M4lL8PVVXPSp0lgDI-157" value="" style="endArrow=diamondThin;endFill=1;endSize=24;html=1;rounded=0;" edge="1" parent="WIyWlLk6GJQsqaUBKTNV-1">
          <mxGeometry width="160" relative="1" as="geometry">
            <mxPoint x="1290" y="770" as="sourcePoint" />
            <mxPoint x="1290" y="700" as="targetPoint" />
            <Array as="points" />
          </mxGeometry>
        </mxCell>
        <mxCell id="M98M4lL8PVVXPSp0lgDI-158" value="" style="endArrow=none;html=1;rounded=0;" edge="1" parent="WIyWlLk6GJQsqaUBKTNV-1">
          <mxGeometry width="50" height="50" relative="1" as="geometry">
            <mxPoint x="1100" y="741" as="sourcePoint" />
            <mxPoint x="1290" y="740" as="targetPoint" />
          </mxGeometry>
        </mxCell>
        <mxCell id="M98M4lL8PVVXPSp0lgDI-159" value="" style="endArrow=none;html=1;rounded=0;exitX=0.639;exitY=-0.083;exitDx=0;exitDy=0;exitPerimeter=0;" edge="1" parent="WIyWlLk6GJQsqaUBKTNV-1" source="M98M4lL8PVVXPSp0lgDI-145">
          <mxGeometry width="50" height="50" relative="1" as="geometry">
            <mxPoint x="1050" y="791" as="sourcePoint" />
            <mxPoint x="1100" y="741" as="targetPoint" />
          </mxGeometry>
        </mxCell>
        <mxCell id="M98M4lL8PVVXPSp0lgDI-160" value="" style="endArrow=none;html=1;rounded=0;" edge="1" parent="WIyWlLk6GJQsqaUBKTNV-1">
          <mxGeometry width="50" height="50" relative="1" as="geometry">
            <mxPoint x="1290" y="740" as="sourcePoint" />
            <mxPoint x="1460" y="740" as="targetPoint" />
          </mxGeometry>
        </mxCell>
        <mxCell id="M98M4lL8PVVXPSp0lgDI-161" value="&lt;span style=&quot;font-weight: normal; font-size: 12px;&quot;&gt;&lt;font style=&quot;font-size: 12px;&quot;&gt;Has&lt;/font&gt;&lt;/span&gt;" style="edgeLabel;html=1;align=center;verticalAlign=middle;resizable=0;points=[];fontStyle=1;fontSize=12;" connectable="0" vertex="1" parent="WIyWlLk6GJQsqaUBKTNV-1">
          <mxGeometry x="1230" y="270.0042857142858" as="geometry">
            <mxPoint x="-186" y="-80" as="offset" />
          </mxGeometry>
        </mxCell>
      </root>
    </mxGraphModel>
  </diagram>
</mxfile>
